<svg width="403" height="117" viewBox="0 0 403 117" fill="none" xmlns="http://www.w3.org/2000/svg">
<path d="M17.0684 0H153.784L156.895 0.800684L161.52 0H316.901L319.424 1.42341L323.039 0H385.848L403 18.1484V98.8374L385.848 116.897H329.513L326.739 115.918L324.3 116.897H59.8657L56.4183 115.651L50.3645 116.897H17.0684L0 98.8374V18.1484L17.0684 0Z" fill="#44291B"/>
<path d="M3.69956 19.7497L18.5819 3.91437L17.0684 0L0 18.1484L3.69956 19.7497Z" fill="url(#paint0_linear_8923_45251)"/>
<path d="M18.582 3.91992L3.69971 19.7552L8.07192 21.6235L20.4318 8.54596L18.582 3.91992Z" fill="url(#paint1_linear_8923_45251)"/>
<path d="M18.5818 3.91437H384.334L385.848 0H323.039L319.424 1.42341L316.901 0H161.519L156.895 0.800684L153.784 0H17.0684L18.5818 3.91437Z" fill="url(#paint2_linear_8923_45251)"/>
<path d="M384.334 3.91992H18.5815L20.4313 8.54596H382.568L384.334 3.91992Z" fill="url(#paint3_linear_8923_45251)"/>
<path d="M8.07192 95.2816V21.6207L3.69971 19.7524V97.2388L8.07192 95.2816Z" fill="url(#paint4_linear_8923_45251)"/>
<path d="M3.69956 97.2415V19.7551L0 18.1538V98.8428L3.69956 97.2415Z" fill="url(#paint5_linear_8923_45251)"/>
<path d="M20.4318 108.447L8.07192 95.2803L3.69971 97.2375L18.582 113.073L20.4318 108.447Z" fill="url(#paint6_linear_8923_45251)"/>
<path d="M18.5819 113.076L3.69956 97.2402L0 98.8415L17.0684 116.901L18.5819 113.076Z" fill="url(#paint7_linear_8923_45251)"/>
<path d="M20.4313 108.451L18.5815 113.077H384.334L382.568 108.451H20.4313Z" fill="url(#paint8_linear_8923_45251)"/>
<path d="M384.334 113.073H18.5818L17.0684 116.898H50.3644L56.4183 115.653L59.8656 116.898H324.3L326.739 115.92L329.513 116.898H385.848L384.334 113.073Z" fill="url(#paint9_linear_8923_45251)"/>
<path d="M394.928 95.2803L382.568 108.447L384.334 113.073L399.3 97.2375L394.928 95.2803Z" fill="url(#paint10_linear_8923_45251)"/>
<path d="M399.3 97.2402L384.334 113.076L385.847 116.901L403 98.8415L399.3 97.2402Z" fill="url(#paint11_linear_8923_45251)"/>
<path d="M394.928 95.2816L399.3 97.2388V19.7524L394.928 21.6207V95.2816Z" fill="url(#paint12_linear_8923_45251)"/>
<path d="M399.3 19.7551V97.2415L402.999 98.8428V18.1538L399.3 19.7551Z" fill="url(#paint13_linear_8923_45251)"/>
<path d="M382.568 8.54596L394.928 21.6235L399.3 19.7552L384.334 3.91992L382.568 8.54596Z" fill="url(#paint14_linear_8923_45251)"/>
<path d="M384.334 3.91437L399.3 19.7497L403 18.1484L385.847 0L384.334 3.91437Z" fill="url(#paint15_linear_8923_45251)"/>
<path d="M20.4317 8.5415H382.568L394.928 21.619V95.28L382.568 108.446H20.4317L8.07178 95.28V21.619L20.4317 8.5415Z" fill="#8F5B00"/>
<path d="M20.4317 8.5415H59.6975L61.6314 10.4987L62.4722 8.5415H152.018L153.196 10.3208L155.97 8.5415H382.568L394.928 21.619V35.1413L393.331 37.6323L394.928 39.2336V63.1645L393.079 64.4989L394.928 66.5451V95.28L382.568 108.446H59.6134L57.9318 106.4L55.6616 108.446H20.4317L8.07178 95.28V72.6835L10.426 70.2815L8.07178 68.5022V21.619L20.4317 8.5415Z" fill="url(#paint16_linear_8923_45251)"/>
<path d="M25.3084 20.9073L20.4317 8.5415L8.07178 21.619L19.759 26.7788L25.3084 20.9073Z" fill="url(#paint17_linear_8923_45251)"/>
<path d="M19.759 90.2122V26.7819L8.07178 21.6221V68.5053L10.426 70.2846L8.07178 72.6866V95.283L19.759 90.2122Z" fill="url(#paint18_linear_8923_45251)"/>
<path d="M19.759 90.2134L8.07178 95.2842L20.4317 108.451L25.3084 96.0849L19.759 90.2134Z" fill="url(#paint19_linear_8923_45251)"/>
<path d="M25.3078 96.0796L20.4312 108.445H55.6611L57.9313 106.399L59.6129 108.445H382.568L377.691 96.0796H25.3078Z" fill="url(#paint20_linear_8923_45251)"/>
<path d="M25.3078 20.9073H377.691L382.568 8.5415H155.97L153.195 10.3208L152.018 8.5415H62.4716L61.6308 10.4987L59.697 8.5415H20.4312L25.3078 20.9073Z" fill="url(#paint21_linear_8923_45251)"/>
<path d="M382.569 8.5415L377.692 20.9073L383.241 26.7788L394.928 21.619L382.569 8.5415Z" fill="url(#paint22_linear_8923_45251)"/>
<path d="M394.928 21.6221L383.241 26.7819V90.2122L394.928 95.283V66.5481L393.078 64.502L394.928 63.1675V39.2366L393.33 37.6353L394.928 35.1444V21.6221Z" fill="url(#paint23_linear_8923_45251)"/>
<path d="M394.928 95.2842L383.241 90.2134L377.692 96.0849L382.569 108.451L394.928 95.2842Z" fill="#666666"/>
<path style="mix-blend-mode:screen" d="M22.1972 24.2035C22.7858 23.136 23.8789 21.7126 23.963 20.4671C24.1311 18.9547 21.5246 11.6598 20.936 9.70264C21.7768 11.5708 24.5515 18.243 25.8127 19.2216C26.3172 19.5775 26.9899 19.7554 27.6625 19.8444C28.5033 19.8444 28.8396 19.7554 29.5964 20.2892C30.269 20.734 31.0258 20.4671 31.7825 20.2892C32.7074 20.1112 33.1278 20.0223 34.1367 20.0223C35.3699 20.0816 36.5751 20.1409 37.7522 20.2002C38.3688 20.2002 38.9854 20.2002 39.602 20.2002C40.2747 20.2595 40.9193 20.2892 41.5359 20.2892C42.0964 20.2892 42.685 20.3188 43.3016 20.3781C43.9182 20.3781 44.5628 20.3781 45.2354 20.3781C45.852 20.4374 46.4686 20.4671 47.0852 20.4671C48.2624 20.5264 49.4395 20.5857 50.6166 20.645C51.8498 20.645 53.111 20.6747 54.4003 20.734C55.0169 20.734 55.6334 20.7636 56.25 20.823C57.259 20.823 58.296 20.8526 59.361 20.9119C60.2019 20.9119 58.7725 20.9119 58.6884 20.9119C57.4552 20.9712 56.194 21.0009 54.9048 21.0009C47.2254 21.1195 39.546 21.2677 31.8666 21.4457C31.1098 21.4457 30.4372 21.5346 29.6805 21.5346C29.0078 21.4457 28.4192 21.5346 27.8307 21.5346C27.158 21.5346 26.5134 21.6236 25.8968 21.8015C24.4674 22.2463 23.2903 23.3139 22.1972 24.2035Z" fill="url(#paint24_radial_8923_45251)"/>
<path style="mix-blend-mode:screen" opacity="0.5" d="M22.5336 93.1465C23.1221 94.214 24.047 95.2816 24.2152 96.527C24.4674 97.9504 21.5246 105.245 20.936 107.203C21.7768 105.423 24.5515 98.7511 25.8127 97.7725C26.3172 97.4167 26.9899 97.1498 27.6625 97.1498L56.4182 96.0822L27.8307 95.4595C27.158 95.4595 26.5134 95.3409 25.8968 95.1037C24.4674 94.6589 23.7107 94.0361 22.5336 93.1465Z" fill="url(#paint25_radial_8923_45251)"/>
<path style="mix-blend-mode:screen" d="M380.803 24.2035C380.13 23.136 379.037 21.7126 378.953 20.4671C378.869 18.9547 381.475 11.6598 382.064 9.70264C381.223 11.5708 378.448 18.243 377.187 19.2216C376.683 19.5775 376.01 19.8444 375.337 19.8444C370.965 19.8444 366.593 19.8444 362.221 19.8444C360.371 19.9333 358.353 20.556 356.503 20.556C355.494 20.645 354.149 19.5775 353.308 19.5775C352.467 19.4885 351.879 19.9333 348.431 19.9333C346.077 19.9333 343.723 19.9333 341.369 19.9333C339.687 19.9333 339.939 18.5989 337.837 19.3106C336.66 19.7554 336.492 19.9333 335.315 19.9333C328.588 20.0223 322.619 20.1112 315.892 20.0223C313.622 20.0223 310.931 18.4209 309.25 19.1326C308.829 19.3106 308.409 19.7554 307.652 19.8444C306.727 20.0223 306.307 20.0223 305.298 20.0223C254.849 20.1112 204.401 20.2002 153.952 20.9119C197.842 21.3567 241.817 21.3567 285.791 21.4457C293.611 21.4457 301.514 21.4457 309.334 21.4457C311.015 21.4457 312.613 21.4457 314.295 21.4457C314.631 21.4457 314.995 21.4457 315.388 21.4457C322.338 21.4457 329.289 21.4457 336.24 21.4457C336.996 21.4457 338.342 21.7126 339.183 21.7126C340.023 21.8015 340.107 21.5346 340.864 21.4457C341.453 21.4457 342.378 21.4457 343.05 21.4457C346.498 21.4457 350.029 21.4457 353.476 21.4457C358.353 21.5346 363.146 21.4457 367.938 21.4457C370.349 21.505 372.759 21.5346 375.169 21.5346C375.842 21.5346 376.486 21.6236 377.103 21.8015C378.532 22.2463 379.625 23.3139 380.803 24.2035Z" fill="url(#paint26_radial_8923_45251)"/>
<path d="M394.928 95.2842L383.241 90.2134L377.692 96.0849L382.569 108.451L394.928 95.2842Z" fill="url(#paint27_linear_8923_45251)"/>
<path style="mix-blend-mode:screen" opacity="0.5" d="M380.803 92.7922C381.812 92.0805 382.484 91.6357 383.661 91.5468C385.091 91.3688 391.986 94.2156 393.751 94.8384C392.07 93.8598 385.764 90.924 384.839 89.5896C384.502 89.0558 384.306 88.4331 384.25 87.7214L383.241 64.3242L382.653 87.4545C382.653 89.5896 381.98 91.1019 380.803 92.7922Z" fill="url(#paint28_radial_8923_45251)"/>
<path style="mix-blend-mode:screen" opacity="0.5" d="M380.299 93.2368C379.626 94.3933 379.037 95.2829 378.953 96.5284C378.869 98.0408 381.476 105.247 382.064 107.204C381.223 105.425 378.533 98.5746 377.188 97.7739C375.674 96.7953 351.206 96.3505 346.582 96.0836C352.047 95.6388 373.404 96.0836 377.188 95.3719C378.617 95.105 379.374 94.2154 380.299 93.2368Z" fill="url(#paint29_radial_8923_45251)"/>
<path style="mix-blend-mode:screen" opacity="0.5" d="M22.1971 92.7919C21.1881 92.0802 20.5155 91.6354 19.3384 91.5464C17.8249 91.3685 11.0143 94.2153 9.16455 94.838C10.9303 93.8594 17.2363 90.9237 18.0771 89.5892C18.4975 89.0555 18.6657 88.4327 18.7498 87.721L19.7588 70.5513L20.2632 87.4541C20.3473 89.5893 21.02 91.1016 22.1971 92.7919Z" fill="url(#paint30_radial_8923_45251)"/>
<path style="mix-blend-mode:screen" d="M22.1971 24.2034C21.1881 24.9151 20.5155 25.3599 19.3384 25.4488C17.8249 25.5378 11.0143 22.78 9.16455 22.1572C10.9303 23.0469 17.2363 25.9826 18.0771 27.317C18.4975 27.8508 18.6657 28.5625 18.7498 29.2742C18.7498 30.1639 18.7498 31.0535 18.7498 31.8541C18.8339 33.0106 19.1702 34.0782 19.3384 35.1457C19.4224 35.7685 19.7588 37.3698 19.5065 37.9036C19.2543 38.5263 19.002 38.1705 19.002 39.149C19.002 39.7718 19.002 40.3945 19.0861 40.9283C19.0861 42.8262 19.1141 44.7241 19.1702 46.6219C19.2262 47.3336 19.2543 48.0157 19.2543 48.668C19.4224 54.1244 19.5906 59.6104 19.7588 65.1261C19.7588 63.8213 19.7868 62.5166 19.8428 61.2118C19.8428 58.5429 19.8709 55.874 19.9269 53.2051C20.011 48.4901 20.011 43.6861 20.1792 38.8822C20.1792 37.9925 20.2632 37.1919 20.2632 36.3023C20.2632 35.4126 20.2632 34.523 20.2632 33.6334C20.2632 32.2693 20.2632 30.9052 20.2632 29.5411C20.3473 27.406 21.02 25.8936 22.1971 24.2034Z" fill="url(#paint31_radial_8923_45251)"/>
<path d="M316.901 0L317.994 3.46956L319.423 1.42341L316.901 0Z" fill="url(#paint32_linear_8923_45251)"/>
<path d="M319.424 1.42341L317.995 3.46956L323.039 0L319.424 1.42341Z" fill="url(#paint33_linear_8923_45251)"/>
<path d="M50.3643 116.901L57.4271 111.029L56.4181 115.655L50.3643 116.901Z" fill="url(#paint34_linear_8923_45251)"/>
<path d="M59.8653 116.901L56.418 115.655L57.4269 111.029L59.8653 116.901Z" fill="url(#paint35_linear_8923_45251)"/>
<path d="M324.3 116.9L325.982 113.608L326.739 115.921L324.3 116.9Z" fill="url(#paint36_linear_8923_45251)"/>
<path d="M326.739 115.921L329.513 116.9L325.982 113.608L326.739 115.921Z" fill="url(#paint37_linear_8923_45251)"/>
<path style="mix-blend-mode:screen" d="M11.3511 11.5665L17.9935 3.47095L17.489 0.97998L18.8343 3.11508L144.451 3.91576L18.9184 4.62745L11.3511 11.5665Z" fill="url(#paint38_radial_8923_45251)"/>
<path style="mix-blend-mode:screen" d="M391.649 11.5665L385.007 3.47095L385.511 0.97998L384.166 3.11508L319.255 3.47095C318.667 3.64887 318.078 3.73783 317.658 3.82679C317.574 3.82679 317.321 3.73781 316.733 3.55989L258.549 3.91576L384.082 4.62745L391.649 11.5665Z" fill="url(#paint39_radial_8923_45251)"/>
<path style="mix-blend-mode:screen" d="M11.3511 105.337L17.9935 113.521L17.489 116.012L18.8343 113.877C26.9901 113.788 47.6741 113.521 54.2324 113.077C46.1606 112.365 27.5787 112.721 18.9184 112.365L11.3511 105.337ZM59.4454 112.988C61.127 113.255 62.8086 113.521 64.4903 113.521L144.451 112.988L63.229 112.543C61.9678 112.543 60.6225 112.721 59.4454 112.988Z" fill="url(#paint40_radial_8923_45251)"/>
<path style="mix-blend-mode:screen" d="M391.649 105.337L385.007 113.521L385.511 116.012L384.166 113.877L258.549 113.077L384.082 112.365L391.649 105.337Z" fill="url(#paint41_radial_8923_45251)"/>
<path style="mix-blend-mode:multiply" d="M152.018 8.5415C150.897 12.6931 149.411 16.815 147.562 20.9073C144.283 24.9106 140.331 29.0029 136.379 33.0062C140.751 29.0918 145.039 25.0885 149.075 20.9073C150.336 16.815 151.766 13.4344 153.195 10.3208L152.018 8.5415Z" fill="url(#paint42_radial_8923_45251)"/>
<path style="mix-blend-mode:screen" d="M153.195 10.3208C151.766 13.4344 150.336 16.815 149.075 20.9073C145.039 25.0885 140.751 29.0918 136.379 33.0062C141.34 28.736 146.216 24.8216 151.261 20.9073C152.102 16.7261 153.784 12.6338 155.97 8.5415L153.195 10.3208Z" fill="url(#paint43_radial_8923_45251)"/>
<path style="mix-blend-mode:multiply" d="M112.248 20.9088C111.911 18.7737 111.407 16.5497 110.902 14.4146C110.902 16.5497 110.818 18.6847 110.482 20.9088C109.557 24.5563 108.044 28.0258 106.278 31.5843C108.632 28.6485 111.07 25.179 112.248 20.9088Z" fill="url(#paint44_radial_8923_45251)"/>
<path style="mix-blend-mode:screen" d="M114.434 20.9088C112.836 18.9516 111.827 16.6386 110.902 14.4146C111.407 16.5497 111.911 18.7737 112.248 20.9088C111.07 25.179 108.632 28.6485 106.278 31.5843C109.725 28.4706 112.92 25.0011 114.434 20.9088Z" fill="url(#paint45_radial_8923_45251)"/>
<path style="mix-blend-mode:multiply" d="M62.7244 20.9073C57.1751 33.2731 49.1033 45.1941 41.4519 56.5813C37.5842 59.2501 27.9149 63.6093 19.759 66.9899C16.564 67.9685 11.9395 68.5912 8.07178 68.5022L10.426 70.2815C13.509 69.6884 16.62 69.0953 19.759 68.5022C27.2422 65.5665 37.8364 60.0508 41.8723 57.0261C49.7759 46.9733 59.0248 32.0276 63.9856 20.9073C63.2009 17.4674 62.4161 13.9979 61.6314 10.4987L59.6975 8.5415C61.211 12.5448 62.3881 16.6371 62.7244 20.9073Z" fill="url(#paint46_radial_8923_45251)"/>
<path style="mix-blend-mode:screen" d="M63.9856 20.9073C59.0248 32.0276 49.7759 46.9733 41.8723 57.0261C37.8364 60.0508 27.2422 65.5665 19.759 68.5022C16.62 69.0953 13.509 69.6884 10.426 70.2815L8.07178 72.6835C12.3599 70.9042 16.7321 70.3704 19.759 70.2815C27.2422 66.1003 35.314 62.0969 42.8813 58.3605C50.869 45.283 58.6885 33.451 66.3399 20.9073C64.4901 17.6157 62.9767 13.1676 62.4722 8.5415L61.6314 10.4987C62.4161 13.9979 63.2009 17.4674 63.9856 20.9073Z" fill="url(#paint47_radial_8923_45251)"/>
<path style="mix-blend-mode:screen" d="M66.6762 19.8426C64.9946 19.8426 63.1448 15.2165 61.8836 11.3911C62.5562 14.5345 63.2569 17.7074 63.9856 20.9101C62.6403 23.9348 60.9587 27.2264 59.1089 30.607C61.0427 27.4933 63.9015 21.9776 66.7603 21.8887C68.6941 21.7997 70.5439 21.7997 72.3937 21.7997C73.3186 21.7997 74.2435 21.6218 75.1684 21.6218C76.1773 21.6218 77.1022 21.6218 78.1112 21.5328C79.5406 21.4439 80.9699 21.4439 82.3152 21.4439C90.0507 21.2659 97.7021 21.088 105.353 20.9101C105.858 20.9101 104.429 20.9101 104.344 20.9101C95.9364 20.6432 87.5283 20.3763 79.1202 20.1984C78.4475 20.1094 78.2793 20.1984 77.6067 20.3763C76.7659 20.5543 75.841 20.1984 75.0002 20.1984C74.8881 20.1984 74.7479 20.1984 74.5798 20.1984C73.9912 20.2874 73.8231 20.5542 72.9822 20.5542C72.2255 20.6432 70.9643 20.4653 70.2076 20.3763C69.619 20.1984 69.5349 19.9315 68.8623 19.9315C68.1056 19.9315 67.3488 19.9315 66.6762 19.8426Z" fill="url(#paint48_radial_8923_45251)"/>
<path style="mix-blend-mode:screen" opacity="0.5" d="M59.1088 96.0807C58.8565 100.173 58.6884 102.308 57.9316 106.4L59.6133 108.446C59.361 104.265 59.9496 99.995 60.37 96.0807C61.6312 92.7001 63.1447 89.3195 64.9104 85.939C62.5561 89.1416 60.7904 92.6111 59.1088 96.0807Z" fill="url(#paint49_radial_8923_45251)"/>
<path style="mix-blend-mode:screen" opacity="0.5" d="M63.3127 95.2815C60.7062 95.2815 61.7152 93.6802 62.3038 91.3672C61.6311 92.9092 60.9865 94.4809 60.3699 96.0822C60.1177 98.3952 59.7813 100.797 59.6973 103.199C60.1177 100.086 60.9585 96.9718 62.556 96.9718C64.2376 96.9718 65.9193 96.8829 67.6009 96.8829C68.1894 96.8829 68.6939 96.8829 69.2825 96.7939C70.1233 96.7939 70.6278 96.7049 71.3845 96.7939C72.3935 96.7939 73.4025 96.7939 74.4114 96.7939C88.537 96.4381 102.747 96.3491 116.872 96.0822C117.993 96.0822 119.114 96.0822 120.236 96.0822C115.247 95.9636 110.258 95.8746 105.269 95.8153C103.419 95.8153 101.57 95.8153 99.7198 95.8153C97.814 95.756 95.9081 95.7263 94.0023 95.7263C87.0516 95.6077 80.1009 95.5188 73.1502 95.4595C72.4776 95.4595 71.9731 95.4595 71.3845 95.7263C70.796 96.0822 70.0392 95.9043 69.4507 95.9043C67.9372 95.8153 66.676 95.3705 65.1625 95.3705C64.5459 95.3112 63.9293 95.2815 63.3127 95.2815Z" fill="url(#paint50_radial_8923_45251)"/>
<path style="mix-blend-mode:multiply" d="M57.6796 96.0807C57.4273 100.173 57.1751 104.354 55.6616 108.446L57.9318 106.4C58.6885 102.308 58.8567 100.173 59.1089 96.0807C60.7906 92.6111 62.5563 89.1416 64.9105 85.939C62.1359 89.1416 59.7816 92.5222 57.6796 96.0807Z" fill="url(#paint51_radial_8923_45251)"/>
<path style="mix-blend-mode:multiply" d="M258.549 96.0794C261.071 93.4995 262.248 91.9872 264.602 89.8521C263.341 91.8092 262.5 93.8554 261.744 96.0794C259.81 98.6593 258.128 101.417 256.699 104.531C257.119 102.04 258.212 99.0152 258.549 96.0794Z" fill="url(#paint52_radial_8923_45251)"/>
<path style="mix-blend-mode:screen" opacity="0.5" d="M261.744 96.0794C259.81 98.6593 258.128 101.417 256.699 104.531C259.978 100.172 261.828 99.371 264.686 96.0794C264.771 94.0333 264.77 91.6313 264.602 89.8521C263.341 91.8092 262.5 93.8554 261.744 96.0794Z" fill="url(#paint53_radial_8923_45251)"/>
<path style="mix-blend-mode:screen" opacity="0.5" d="M263.762 90.5679L260.062 93.5036C259.109 94.2153 258.1 94.6898 257.035 94.927C256.418 95.105 255.746 95.1939 255.017 95.1939C254.092 95.1939 253.083 95.1939 252.074 95.2829C250.897 95.2829 249.72 95.5498 248.627 95.8167C248.122 95.9946 247.534 96.0835 247.029 95.8167C246.693 95.6387 246.693 95.5498 246.273 95.3718C245.852 95.2829 245.096 95.2829 244.675 95.2829C241.536 95.3422 238.397 95.3718 235.258 95.3718C233.745 95.4608 232.315 95.3718 230.886 95.4608C230.297 95.4608 229.961 95.4608 229.457 95.8167C228.868 96.1725 227.691 95.9056 227.018 95.7277C226.261 95.6387 225.925 95.4608 225.084 95.5498C224.075 95.5498 223.038 95.5498 221.973 95.5498C218.218 95.5498 214.462 95.5794 210.706 95.6387C209.417 95.6387 208.156 95.6684 206.923 95.7277C202.495 95.7277 198.066 95.7573 193.638 95.8167C193.021 95.8167 192.405 95.8167 191.788 95.8167C186.799 95.876 181.783 95.9353 176.738 95.9946C174.664 95.9946 172.562 96.0242 170.432 96.0835C172.337 96.0835 174.243 96.0835 176.149 96.0835C181.811 96.1428 187.472 96.2022 193.134 96.2615C194.367 96.2615 195.628 96.2615 196.917 96.2615C198.767 96.2615 200.645 96.2911 202.551 96.3504C206.923 96.3504 211.295 96.3801 215.667 96.4394C216.9 96.4394 218.162 96.4394 219.451 96.4394C221.357 96.4394 223.234 96.469 225.084 96.5283C225.841 96.5283 226.43 96.5283 227.102 96.6173C228.111 96.6173 228.784 96.6173 229.793 96.6173C230.718 96.5283 231.727 96.5283 232.652 96.5283C235.118 96.5877 237.612 96.6173 240.135 96.6173C241.929 96.6173 243.75 96.647 245.6 96.7063C246.329 96.7063 247.057 96.7063 247.786 96.7063C248.879 96.7063 249.888 96.7063 250.981 96.7063C251.318 96.7063 251.654 96.7063 251.99 96.7063C253.055 96.7063 254.092 96.7359 255.101 96.7952C255.774 96.7952 256.531 96.8842 256.951 97.329C257.54 98.0407 257.203 101.243 257.035 102.934C257.54 100.799 258.296 98.3966 258.549 96.0835C260.735 93.8595 261.912 92.3471 263.762 90.5679Z" fill="url(#paint54_radial_8923_45251)"/>
<path style="mix-blend-mode:screen" opacity="0.5" d="M393.078 64.4994C389.771 63.7877 386.492 63.076 383.241 62.3643C379.373 62.898 375.506 63.3429 371.89 64.2325C359.446 70.104 332.456 88.964 323.964 96.0811C324.58 100.173 325.197 104.295 325.814 108.447H326.318C326.486 104.355 326.57 100.173 325.814 96.0811C340.612 84.338 354.317 74.5521 372.142 65.389C375.421 64.3214 379.541 63.2539 383.241 63.4318C387.193 64.1435 391.06 65.3 394.928 66.5455L393.078 64.4994Z" fill="url(#paint55_radial_8923_45251)"/>
<path style="mix-blend-mode:multiply" d="M383.241 62.3656C386.492 63.0773 389.771 63.789 393.079 64.5007L394.928 63.1662C391.005 62.8104 387.109 62.1284 383.241 61.1201C379.542 62.0987 375.506 62.6325 371.47 63.0773C354.149 73.219 337.921 84.3393 322.535 96.0824C323.712 100.264 324.216 104.356 324.384 108.448H325.814C325.197 104.297 324.581 100.175 323.964 96.0824C332.456 88.9654 359.446 70.1053 371.89 64.2338C375.506 63.3442 379.373 62.8994 383.241 62.3656Z" fill="url(#paint56_radial_8923_45251)"/>
<path style="mix-blend-mode:multiply" d="M394.928 35.1401C391.481 36.0298 387.277 36.8304 383.241 36.6525C378.533 39.0545 374.076 40.9227 368.443 42.524C373.656 41.6344 379.542 39.9441 383.241 38.4318C387.109 37.898 389.379 37.7201 393.331 37.6311L394.928 35.1401Z" fill="url(#paint57_radial_8923_45251)"/>
<path style="mix-blend-mode:screen" d="M393.331 37.6353C389.379 37.7242 387.109 37.9021 383.241 38.4359C379.542 39.9483 373.656 41.6386 368.443 42.5282C373.572 42.6172 378.953 41.2827 383.241 39.8593C387.193 39.1476 391.229 38.7918 394.928 39.2366L393.331 37.6353Z" fill="url(#paint58_radial_8923_45251)"/>
<path style="mix-blend-mode:screen" d="M18.5818 3.91437H384.334L385.848 0H323.039L319.424 1.42341L316.901 0H161.519L156.895 0.800684L153.784 0H17.0684L18.5818 3.91437Z" fill="url(#paint59_linear_8923_45251)"/>
<path d="M153.784 0L154.12 4.71503L156.895 0.800684L153.784 0Z" fill="url(#paint60_linear_8923_45251)"/>
<path d="M156.895 0.800684L154.12 4.71503L161.519 0L156.895 0.800684Z" fill="url(#paint61_linear_8923_45251)"/>
<g clip-path="url(#clip0_8923_45251)">
<g filter="url(#filter0_dddd_8923_45251)">
<path fill-rule="evenodd" clip-rule="evenodd" d="M68.7021 38.6247C76.2111 37.7924 83.7891 37.7924 91.2981 38.6247C95.4557 39.0907 98.8099 42.3648 99.2977 46.537C100.188 54.1522 100.188 61.8453 99.2977 69.4606C99.0508 71.4879 98.1265 73.3723 96.6745 74.8085C95.2225 76.2446 93.328 77.1482 91.2981 77.3728C83.7893 78.2077 76.211 78.2077 68.7021 77.3728C66.6723 77.1482 64.7778 76.2446 63.3258 74.8085C61.8738 73.3723 60.9494 71.4879 60.7025 69.4606C59.812 61.8461 59.812 54.1538 60.7025 46.5394C60.9493 44.5125 61.8733 42.6283 63.3248 41.1922C64.7763 39.7561 66.6703 38.8523 68.6997 38.6272L68.7021 38.6247ZM80.0001 45.8817C80.4829 45.8817 80.9459 46.0734 81.2873 46.4148C81.6286 46.7562 81.8204 47.2192 81.8204 47.702V56.1797H90.2981C90.7809 56.1797 91.2439 56.3715 91.5853 56.7128C91.9267 57.0542 92.1184 57.5172 92.1184 58C92.1184 58.4828 91.9267 58.9458 91.5853 59.2871C91.2439 59.6285 90.7809 59.8203 90.2981 59.8203H81.8204V68.298C81.8204 68.7808 81.6286 69.2438 81.2873 69.5852C80.9459 69.9265 80.4829 70.1183 80.0001 70.1183C79.5173 70.1183 79.0543 69.9265 78.713 69.5852C78.3716 69.2438 78.1798 68.7808 78.1798 68.298V59.8203H69.7021C69.2193 59.8203 68.7563 59.6285 68.4149 59.2871C68.0736 58.9458 67.8818 58.4828 67.8818 58C67.8818 57.5172 68.0736 57.0542 68.4149 56.7128C68.7563 56.3715 69.2193 56.1797 69.7021 56.1797H78.1798V47.702C78.1798 47.2192 78.3716 46.7562 78.713 46.4148C79.0543 46.0734 79.5173 45.8817 80.0001 45.8817Z" fill="#FFF4CB"/>
</g>
</g>
<g filter="url(#filter1_dddd_8923_45251)">
<path d="M117.274 57.672C117.274 55.4533 117.733 53.48 118.65 51.752C119.589 50.0027 120.911 48.648 122.618 47.688C124.325 46.7067 126.287 46.216 128.506 46.216C131.322 46.216 133.69 46.9733 135.61 48.488C137.53 49.9813 138.767 52.0187 139.322 54.6H132.57C132.165 53.7467 131.599 53.096 130.874 52.648C130.17 52.2 129.349 51.976 128.41 51.976C126.959 51.976 125.797 52.4987 124.922 53.544C124.069 54.568 123.642 55.944 123.642 57.672C123.642 59.4213 124.069 60.8187 124.922 61.864C125.797 62.888 126.959 63.4 128.41 63.4C129.349 63.4 130.17 63.176 130.874 62.728C131.599 62.28 132.165 61.6293 132.57 60.776H139.322C138.767 63.3573 137.53 65.4053 135.61 66.92C133.69 68.4133 131.322 69.16 128.506 69.16C126.287 69.16 124.325 68.68 122.618 67.72C120.911 66.7387 119.589 65.384 118.65 63.656C117.733 61.9067 117.274 59.912 117.274 57.672ZM153.716 69L149.236 60.68H148.564V69H142.292V46.44H152.18C153.993 46.44 155.529 46.76 156.788 47.4C158.047 48.0187 158.996 48.8827 159.636 49.992C160.276 51.08 160.596 52.3067 160.596 53.672C160.596 55.208 160.169 56.5627 159.316 57.736C158.484 58.888 157.257 59.7093 155.636 60.2L160.724 69H153.716ZM148.564 56.392H151.668C152.521 56.392 153.161 56.1893 153.588 55.784C154.015 55.3787 154.228 54.792 154.228 54.024C154.228 53.2987 154.004 52.7333 153.556 52.328C153.129 51.9013 152.5 51.688 151.668 51.688H148.564V56.392ZM169.72 51.464V55.144H176.92V59.912H169.72V63.976H177.88V69H163.448V46.44H177.88V51.464H169.72ZM195.252 65.32H187.252L186.036 69H179.444L187.668 46.44H194.9L203.092 69H196.468L195.252 65.32ZM193.684 60.52L191.252 53.224L188.852 60.52H193.684ZM222.128 46.44V51.432H216.112V69H209.84V51.432H203.888V46.44H222.128ZM230.72 51.464V55.144H237.92V59.912H230.72V63.976H238.88V69H224.448V46.44H238.88V51.464H230.72ZM259.529 69L255.049 60.68H254.377V69H248.105V46.44H257.993C259.806 46.44 261.342 46.76 262.601 47.4C263.859 48.0187 264.809 48.8827 265.449 49.992C266.089 51.08 266.409 52.3067 266.409 53.672C266.409 55.208 265.982 56.5627 265.128 57.736C264.297 58.888 263.07 59.7093 261.449 60.2L266.537 69H259.529ZM254.377 56.392H257.481C258.334 56.392 258.974 56.1893 259.401 55.784C259.827 55.3787 260.041 54.792 260.041 54.024C260.041 53.2987 259.817 52.7333 259.369 52.328C258.942 51.9013 258.313 51.688 257.481 51.688H254.377V56.392ZM280.077 69.224C277.965 69.224 276.023 68.7333 274.253 67.752C272.482 66.7493 271.074 65.3733 270.029 63.624C269.005 61.8533 268.493 59.8587 268.493 57.64C268.493 55.4213 269.005 53.4373 270.029 51.688C271.074 49.9173 272.482 48.5413 274.253 47.56C276.023 46.5787 277.965 46.088 280.077 46.088C282.21 46.088 284.151 46.5787 285.901 47.56C287.671 48.5413 289.069 49.9173 290.093 51.688C291.117 53.4373 291.629 55.4213 291.629 57.64C291.629 59.8587 291.117 61.8533 290.093 63.624C289.069 65.3733 287.671 66.7493 285.901 67.752C284.13 68.7333 282.189 69.224 280.077 69.224ZM280.077 63.4C281.677 63.4 282.935 62.8773 283.853 61.832C284.791 60.7867 285.261 59.3893 285.261 57.64C285.261 55.848 284.791 54.44 283.853 53.416C282.935 52.3707 281.677 51.848 280.077 51.848C278.455 51.848 277.186 52.3707 276.269 53.416C275.351 54.44 274.893 55.848 274.893 57.64C274.893 59.4107 275.351 60.8187 276.269 61.864C277.186 62.888 278.455 63.4 280.077 63.4ZM305.264 69.224C303.152 69.224 301.211 68.7333 299.44 67.752C297.67 66.7493 296.262 65.3733 295.216 63.624C294.192 61.8533 293.68 59.8587 293.68 57.64C293.68 55.4213 294.192 53.4373 295.216 51.688C296.262 49.9173 297.67 48.5413 299.44 47.56C301.211 46.5787 303.152 46.088 305.264 46.088C307.398 46.088 309.339 46.5787 311.088 47.56C312.859 48.5413 314.256 49.9173 315.28 51.688C316.304 53.4373 316.816 55.4213 316.816 57.64C316.816 59.8587 316.304 61.8533 315.28 63.624C314.256 65.3733 312.859 66.7493 311.088 67.752C309.318 68.7333 307.376 69.224 305.264 69.224ZM305.264 63.4C306.864 63.4 308.123 62.8773 309.04 61.832C309.979 60.7867 310.448 59.3893 310.448 57.64C310.448 55.848 309.979 54.44 309.04 53.416C308.123 52.3707 306.864 51.848 305.264 51.848C303.643 51.848 302.374 52.3707 301.456 53.416C300.539 54.44 300.08 55.848 300.08 57.64C300.08 59.4107 300.539 60.8187 301.456 61.864C302.374 62.888 303.643 63.4 305.264 63.4ZM345.972 46.44V69H339.7V56.552L335.444 69H330.196L325.908 56.456V69H319.636V46.44H327.22L332.884 61.096L338.42 46.44H345.972Z" fill="#FFF4CB"/>
</g>
<defs>
<filter id="filter0_dddd_8923_45251" x="54.9874" y="30.4296" width="55.073" height="55.1404" filterUnits="userSpaceOnUse" color-interpolation-filters="sRGB">
<feFlood flood-opacity="0" result="BackgroundImageFix"/>
<feColorMatrix in="SourceAlpha" type="matrix" values="0 0 0 0 0 0 0 0 0 0 0 0 0 0 0 0 0 0 127 0" result="hardAlpha"/>
<feOffset dy="2.52364"/>
<feGaussianBlur stdDeviation="2.52364"/>
<feColorMatrix type="matrix" values="0 0 0 0 0 0 0 0 0 0 0 0 0 0 0 0 0 0 0.2 0"/>
<feBlend mode="overlay" in2="BackgroundImageFix" result="effect1_dropShadow_8923_45251"/>
<feColorMatrix in="SourceAlpha" type="matrix" values="0 0 0 0 0 0 0 0 0 0 0 0 0 0 0 0 0 0 127 0" result="hardAlpha"/>
<feOffset dy="2.52364"/>
<feGaussianBlur stdDeviation="1.26182"/>
<feColorMatrix type="matrix" values="0 0 0 0 0 0 0 0 0 0 0 0 0 0 0 0 0 0 0.22 0"/>
<feBlend mode="overlay" in2="effect1_dropShadow_8923_45251" result="effect2_dropShadow_8923_45251"/>
<feColorMatrix in="SourceAlpha" type="matrix" values="0 0 0 0 0 0 0 0 0 0 0 0 0 0 0 0 0 0 127 0" result="hardAlpha"/>
<feOffset dy="2.52364"/>
<feGaussianBlur stdDeviation="2.52364"/>
<feColorMatrix type="matrix" values="0 0 0 0 0 0 0 0 0 0 0 0 0 0 0 0 0 0 0.24 0"/>
<feBlend mode="overlay" in2="effect2_dropShadow_8923_45251" result="effect3_dropShadow_8923_45251"/>
<feColorMatrix in="SourceAlpha" type="matrix" values="0 0 0 0 0 0 0 0 0 0 0 0 0 0 0 0 0 0 127 0" result="hardAlpha"/>
<feOffset dx="2.52364"/>
<feGaussianBlur stdDeviation="3.78546"/>
<feColorMatrix type="matrix" values="0 0 0 0 0 0 0 0 0 0 0 0 0 0 0 0 0 0 0.35 0"/>
<feBlend mode="normal" in2="effect3_dropShadow_8923_45251" result="effect4_dropShadow_8923_45251"/>
<feBlend mode="normal" in="SourceGraphic" in2="effect4_dropShadow_8923_45251" result="shape"/>
</filter>
<filter id="filter1_dddd_8923_45251" x="113.115" y="39.8491" width="241.175" height="35.6137" filterUnits="userSpaceOnUse" color-interpolation-filters="sRGB">
<feFlood flood-opacity="0" result="BackgroundImageFix"/>
<feColorMatrix in="SourceAlpha" type="matrix" values="0 0 0 0 0 0 0 0 0 0 0 0 0 0 0 0 0 0 127 0" result="hardAlpha"/>
<feOffset dy="2.07958"/>
<feGaussianBlur stdDeviation="2.07958"/>
<feColorMatrix type="matrix" values="0 0 0 0 0 0 0 0 0 0 0 0 0 0 0 0 0 0 0.2 0"/>
<feBlend mode="overlay" in2="BackgroundImageFix" result="effect1_dropShadow_8923_45251"/>
<feColorMatrix in="SourceAlpha" type="matrix" values="0 0 0 0 0 0 0 0 0 0 0 0 0 0 0 0 0 0 127 0" result="hardAlpha"/>
<feOffset dy="2.07958"/>
<feGaussianBlur stdDeviation="1.03979"/>
<feColorMatrix type="matrix" values="0 0 0 0 0 0 0 0 0 0 0 0 0 0 0 0 0 0 0.22 0"/>
<feBlend mode="overlay" in2="effect1_dropShadow_8923_45251" result="effect2_dropShadow_8923_45251"/>
<feColorMatrix in="SourceAlpha" type="matrix" values="0 0 0 0 0 0 0 0 0 0 0 0 0 0 0 0 0 0 127 0" result="hardAlpha"/>
<feOffset dy="2.07958"/>
<feGaussianBlur stdDeviation="2.07958"/>
<feColorMatrix type="matrix" values="0 0 0 0 0 0 0 0 0 0 0 0 0 0 0 0 0 0 0.24 0"/>
<feBlend mode="overlay" in2="effect2_dropShadow_8923_45251" result="effect3_dropShadow_8923_45251"/>
<feColorMatrix in="SourceAlpha" type="matrix" values="0 0 0 0 0 0 0 0 0 0 0 0 0 0 0 0 0 0 127 0" result="hardAlpha"/>
<feOffset dx="2.07958"/>
<feGaussianBlur stdDeviation="3.11938"/>
<feColorMatrix type="matrix" values="0 0 0 0 0 0 0 0 0 0 0 0 0 0 0 0 0 0 0.35 0"/>
<feBlend mode="normal" in2="effect3_dropShadow_8923_45251" result="effect4_dropShadow_8923_45251"/>
<feBlend mode="normal" in="SourceGraphic" in2="effect4_dropShadow_8923_45251" result="shape"/>
</filter>
<linearGradient id="paint0_linear_8923_45251" x1="7.65137" y1="-9.69692" x2="28.6764" y2="7.01495" gradientUnits="userSpaceOnUse">
<stop stop-color="#734F34"/>
<stop offset="1" stop-color="#BF9261"/>
</linearGradient>
<linearGradient id="paint1_linear_8923_45251" x1="10.5943" y1="-4.7984" x2="29.5034" y2="10.1638" gradientUnits="userSpaceOnUse">
<stop stop-color="#7A4528"/>
<stop offset="1" stop-color="#572E18"/>
</linearGradient>
<linearGradient id="paint2_linear_8923_45251" x1="201.458" y1="3.91437" x2="201.458" y2="0" gradientUnits="userSpaceOnUse">
<stop stop-color="#F0D497"/>
<stop offset="1" stop-color="#827257"/>
</linearGradient>
<linearGradient id="paint3_linear_8923_45251" x1="201.458" y1="8.54596" x2="201.458" y2="3.91992" gradientUnits="userSpaceOnUse">
<stop stop-color="#572E18"/>
<stop offset="1" stop-color="#9C5833"/>
</linearGradient>
<linearGradient id="paint4_linear_8923_45251" x1="3.69971" y1="19.7524" x2="8.07192" y2="19.7524" gradientUnits="userSpaceOnUse">
<stop stop-color="#754D37"/>
<stop offset="1" stop-color="#42291B"/>
</linearGradient>
<linearGradient id="paint5_linear_8923_45251" x1="0" y1="18.1538" x2="3.69956" y2="18.1538" gradientUnits="userSpaceOnUse">
<stop stop-color="#63482C"/>
<stop offset="1" stop-color="#D6AB62"/>
</linearGradient>
<linearGradient id="paint6_linear_8923_45251" x1="-4.62431" y1="102.664" x2="14.3736" y2="87.6181" gradientUnits="userSpaceOnUse">
<stop stop-color="#AC5A00"/>
<stop offset="1" stop-color="#735034"/>
</linearGradient>
<linearGradient id="paint7_linear_8923_45251" x1="-9.16483" y1="105.336" x2="11.8545" y2="88.7116" gradientUnits="userSpaceOnUse">
<stop stop-color="#422312"/>
<stop offset="1" stop-color="#7A4528"/>
</linearGradient>
<linearGradient id="paint8_linear_8923_45251" x1="201.458" y1="113.077" x2="201.458" y2="108.451" gradientUnits="userSpaceOnUse">
<stop stop-color="#F0D497"/>
<stop offset="1" stop-color="#827257"/>
</linearGradient>
<linearGradient id="paint9_linear_8923_45251" x1="201.458" y1="116.898" x2="201.458" y2="113.073" gradientUnits="userSpaceOnUse">
<stop stop-color="#42291B"/>
<stop offset="1" stop-color="#754D37"/>
</linearGradient>
<linearGradient id="paint10_linear_8923_45251" x1="389.463" y1="121.791" x2="373.315" y2="103.562" gradientUnits="userSpaceOnUse">
<stop stop-color="#A67137"/>
<stop offset="1" stop-color="#734F34"/>
</linearGradient>
<linearGradient id="paint11_linear_8923_45251" x1="392.069" y1="126.598" x2="374.042" y2="106.339" gradientUnits="userSpaceOnUse">
<stop stop-color="#422312"/>
<stop offset="1" stop-color="#7A4528"/>
</linearGradient>
<linearGradient id="paint12_linear_8923_45251" x1="394.928" y1="19.7524" x2="399.3" y2="19.7524" gradientUnits="userSpaceOnUse">
<stop stop-color="#63482C"/>
<stop offset="1" stop-color="#D6AB62"/>
</linearGradient>
<linearGradient id="paint13_linear_8923_45251" x1="399.3" y1="18.1538" x2="402.999" y2="18.1538" gradientUnits="userSpaceOnUse">
<stop stop-color="#754D37"/>
<stop offset="1" stop-color="#42291B"/>
</linearGradient>
<linearGradient id="paint14_linear_8923_45251" x1="407.54" y1="11.2148" x2="391.393" y2="29.4442" gradientUnits="userSpaceOnUse">
<stop stop-color="#7A4528"/>
<stop offset="1" stop-color="#571818"/>
</linearGradient>
<linearGradient id="paint15_linear_8923_45251" x1="412.165" y1="8.18456" x2="394.142" y2="28.3543" gradientUnits="userSpaceOnUse">
<stop stop-color="#734F34"/>
<stop offset="1" stop-color="#BF9261"/>
</linearGradient>
<linearGradient id="paint16_linear_8923_45251" x1="189.939" y1="108.446" x2="189.939" y2="8.5415" gradientUnits="userSpaceOnUse">
<stop stop-color="#976201"/>
<stop offset="0.467" stop-color="#B3760E"/>
<stop offset="1" stop-color="#F99D00"/>
</linearGradient>
<linearGradient id="paint17_linear_8923_45251" x1="10.8464" y1="-4.2691" x2="34.5925" y2="14.5165" gradientUnits="userSpaceOnUse">
<stop stop-color="#B87706"/>
<stop offset="1" stop-color="#F8D291"/>
</linearGradient>
<linearGradient id="paint18_linear_8923_45251" x1="8.07178" y1="21.6221" x2="19.759" y2="21.6221" gradientUnits="userSpaceOnUse">
<stop stop-color="#976001"/>
<stop offset="1" stop-color="#BC7906"/>
</linearGradient>
<linearGradient id="paint19_linear_8923_45251" x1="-0.336318" y1="97.6862" x2="15.2353" y2="85.2972" gradientUnits="userSpaceOnUse">
<stop stop-color="#976001"/>
<stop offset="1" stop-color="#B67300"/>
</linearGradient>
<linearGradient id="paint20_linear_8923_45251" x1="201.289" y1="108.445" x2="201.289" y2="96.0796" gradientUnits="userSpaceOnUse">
<stop stop-color="#CD8200"/>
<stop offset="0.0416667" stop-color="#A36700"/>
<stop offset="1" stop-color="#CA7D02"/>
</linearGradient>
<linearGradient id="paint21_linear_8923_45251" x1="201.289" y1="20.9073" x2="201.289" y2="8.5415" gradientUnits="userSpaceOnUse">
<stop stop-color="#976001"/>
<stop offset="1" stop-color="#F4A927"/>
</linearGradient>
<linearGradient id="paint22_linear_8923_45251" x1="403.421" y1="16.1033" x2="386.739" y2="34.836" gradientUnits="userSpaceOnUse">
<stop stop-color="#976001"/>
<stop offset="1" stop-color="#B67402"/>
</linearGradient>
<linearGradient id="paint23_linear_8923_45251" x1="383.241" y1="21.6221" x2="394.928" y2="21.6221" gradientUnits="userSpaceOnUse">
<stop stop-color="#976001"/>
<stop offset="1" stop-color="#BB7600"/>
</linearGradient>
<radialGradient id="paint24_radial_8923_45251" cx="0" cy="0" r="1" gradientUnits="userSpaceOnUse" gradientTransform="translate(27.4103 18.243) scale(34.305 36.2967)">
<stop stop-color="#54C3FF"/>
<stop offset="1"/>
</radialGradient>
<radialGradient id="paint25_radial_8923_45251" cx="0" cy="0" r="1" gradientUnits="userSpaceOnUse" gradientTransform="translate(27.9988 93.3244) scale(36.6593 38.7876)">
<stop stop-color="#54C3FF"/>
<stop offset="1"/>
</radialGradient>
<radialGradient id="paint26_radial_8923_45251" cx="0" cy="0" r="1" gradientUnits="userSpaceOnUse" gradientTransform="translate(351.795 4.45386) scale(218.106 230.769)">
<stop stop-color="#54C3FF"/>
<stop offset="1"/>
</radialGradient>
<linearGradient id="paint27_linear_8923_45251" x1="384.839" y1="117.436" x2="368.153" y2="98.6138" gradientUnits="userSpaceOnUse">
<stop stop-color="#976001"/>
<stop offset="1" stop-color="#C77802"/>
</linearGradient>
<radialGradient id="paint28_radial_8923_45251" cx="0" cy="0" r="1" gradientUnits="userSpaceOnUse" gradientTransform="translate(386.436 89.6785) scale(41.536 43.9475)">
<stop stop-color="#54C3FF"/>
<stop offset="1"/>
</radialGradient>
<radialGradient id="paint29_radial_8923_45251" cx="0" cy="0" r="1" gradientUnits="userSpaceOnUse" gradientTransform="translate(379.458 97.1512) scale(39.2658 41.5455)">
<stop stop-color="#54C3FF"/>
<stop offset="1"/>
</radialGradient>
<radialGradient id="paint30_radial_8923_45251" cx="0" cy="0" r="1" gradientUnits="userSpaceOnUse" gradientTransform="translate(21.02 92.525) scale(32.7075 34.6064)">
<stop stop-color="#54C3FF"/>
<stop offset="1"/>
</radialGradient>
<radialGradient id="paint31_radial_8923_45251" cx="0" cy="0" r="1" gradientUnits="userSpaceOnUse" gradientTransform="translate(18.8339 21.8014) scale(45.656 48.3066)">
<stop stop-color="#54C3FF"/>
<stop offset="1"/>
</radialGradient>
<linearGradient id="paint32_linear_8923_45251" x1="316.901" y1="0" x2="319.423" y2="0" gradientUnits="userSpaceOnUse">
<stop stop-color="#9C7135"/>
<stop offset="1" stop-color="#572E18"/>
</linearGradient>
<linearGradient id="paint33_linear_8923_45251" x1="317.995" y1="0" x2="323.039" y2="0" gradientUnits="userSpaceOnUse">
<stop stop-color="#A67D5F"/>
<stop offset="1" stop-color="#F0D0AD"/>
</linearGradient>
<linearGradient id="paint34_linear_8923_45251" x1="50.3643" y1="111.029" x2="57.4271" y2="111.029" gradientUnits="userSpaceOnUse">
<stop stop-color="#5C3A28"/>
<stop offset="1" stop-color="#42291B"/>
</linearGradient>
<linearGradient id="paint35_linear_8923_45251" x1="56.418" y1="111.029" x2="59.8653" y2="111.029" gradientUnits="userSpaceOnUse">
<stop stop-color="#734F34"/>
<stop offset="1" stop-color="#A67137"/>
</linearGradient>
<linearGradient id="paint36_linear_8923_45251" x1="324.3" y1="113.608" x2="326.739" y2="113.608" gradientUnits="userSpaceOnUse">
<stop stop-color="#5C3A28"/>
<stop offset="1" stop-color="#42291B"/>
</linearGradient>
<linearGradient id="paint37_linear_8923_45251" x1="325.982" y1="113.608" x2="329.513" y2="113.608" gradientUnits="userSpaceOnUse">
<stop stop-color="#734F34"/>
<stop offset="1" stop-color="#A67137"/>
</linearGradient>
<radialGradient id="paint38_radial_8923_45251" cx="0" cy="0" r="1" gradientUnits="userSpaceOnUse" gradientTransform="translate(24.6359 3.11508) scale(109.053 115.384)">
<stop stop-color="#B0825F"/>
<stop offset="1"/>
</radialGradient>
<radialGradient id="paint39_radial_8923_45251" cx="0" cy="0" r="1" gradientUnits="userSpaceOnUse" gradientTransform="translate(388.37 -1.33305) scale(134.614 142.429)">
<stop stop-color="#B0825F"/>
<stop offset="1"/>
</radialGradient>
<radialGradient id="paint40_radial_8923_45251" cx="0" cy="0" r="1" gradientUnits="userSpaceOnUse" gradientTransform="translate(24.0473 117.614) scale(93.8344 99.2822)">
<stop stop-color="#B0825F"/>
<stop offset="1"/>
</radialGradient>
<radialGradient id="paint41_radial_8923_45251" cx="0" cy="0" r="1" gradientUnits="userSpaceOnUse" gradientTransform="translate(385.175 113.61) scale(113.677 120.277)">
<stop stop-color="#B0825F"/>
<stop offset="1"/>
</radialGradient>
<radialGradient id="paint42_radial_8923_45251" cx="0" cy="0" r="1" gradientUnits="userSpaceOnUse" gradientTransform="translate(146.973 19.6618) scale(16.4799 17.4367)">
<stop stop-color="#C3D0E3"/>
<stop offset="1" stop-color="#696F7D"/>
</radialGradient>
<radialGradient id="paint43_radial_8923_45251" cx="0" cy="0" r="1" gradientUnits="userSpaceOnUse" gradientTransform="translate(154.877 22.0638) scale(27.2422 28.8239)">
<stop stop-color="#54C3FF"/>
<stop offset="1"/>
</radialGradient>
<radialGradient id="paint44_radial_8923_45251" cx="0" cy="0" r="1" gradientUnits="userSpaceOnUse" gradientTransform="translate(115.527 16.3717) scale(17.5729 18.5932)">
<stop stop-color="#C3D0E3"/>
<stop offset="1" stop-color="#696F7D"/>
</radialGradient>
<radialGradient id="paint45_radial_8923_45251" cx="0" cy="0" r="1" gradientUnits="userSpaceOnUse" gradientTransform="translate(117.292 22.777) scale(24.1312 25.5322)">
<stop stop-color="#54C3FF"/>
<stop offset="1"/>
</radialGradient>
<radialGradient id="paint46_radial_8923_45251" cx="0" cy="0" r="1" gradientUnits="userSpaceOnUse" gradientTransform="translate(35.9026 40.657) scale(39.6021 41.9013)">
<stop stop-color="#C3D0E3"/>
<stop offset="1" stop-color="#696F7D"/>
</radialGradient>
<radialGradient id="paint47_radial_8923_45251" cx="0" cy="0" r="1" gradientUnits="userSpaceOnUse" gradientTransform="translate(54.5686 54.0903) scale(73.0664 77.3084)">
<stop stop-color="#63C8FF"/>
<stop offset="1"/>
</radialGradient>
<radialGradient id="paint48_radial_8923_45251" cx="0" cy="0" r="1" gradientUnits="userSpaceOnUse" gradientTransform="translate(64.0697 21.5328) scale(48.4306 51.2424)">
<stop stop-color="#54C3FF"/>
<stop offset="1"/>
</radialGradient>
<radialGradient id="paint49_radial_8923_45251" cx="0" cy="0" r="1" gradientUnits="userSpaceOnUse" gradientTransform="translate(62.8083 108.18) scale(27.8308 29.4466)">
<stop stop-color="#54C3FF"/>
<stop offset="1"/>
</radialGradient>
<radialGradient id="paint50_radial_8923_45251" cx="0" cy="0" r="1" gradientUnits="userSpaceOnUse" gradientTransform="translate(66.5078 73.7526) scale(78.4476 83.002)">
<stop stop-color="#54C3FF"/>
<stop offset="1"/>
</radialGradient>
<radialGradient id="paint51_radial_8923_45251" cx="0" cy="0" r="1" gradientUnits="userSpaceOnUse" gradientTransform="translate(63.4812 87.3624) scale(22.1133 23.3972)">
<stop stop-color="#C3D0E3"/>
<stop offset="1" stop-color="#696F7D"/>
</radialGradient>
<radialGradient id="paint52_radial_8923_45251" cx="0" cy="0" r="1" gradientUnits="userSpaceOnUse" gradientTransform="translate(264.014 90.4748) scale(18.2456 19.3049)">
<stop stop-color="#C3D0E3"/>
<stop offset="1" stop-color="#696F7D"/>
</radialGradient>
<radialGradient id="paint53_radial_8923_45251" cx="0" cy="0" r="1" gradientUnits="userSpaceOnUse" gradientTransform="translate(263.846 112.626) scale(24.1312 25.5322)">
<stop stop-color="#54C3FF"/>
<stop offset="1"/>
</radialGradient>
<radialGradient id="paint54_radial_8923_45251" cx="0" cy="0" r="1" gradientUnits="userSpaceOnUse" gradientTransform="translate(222.982 75.8001) scale(69.1146 73.1272)">
<stop stop-color="#54C3FF"/>
<stop offset="1"/>
</radialGradient>
<radialGradient id="paint55_radial_8923_45251" cx="0" cy="0" r="1" gradientUnits="userSpaceOnUse" gradientTransform="translate(363.986 86.2952) scale(61.7995 65.3875)">
<stop stop-color="#54C3FF"/>
<stop offset="1"/>
</radialGradient>
<radialGradient id="paint56_radial_8923_45251" cx="0" cy="0" r="1" gradientUnits="userSpaceOnUse" gradientTransform="translate(350.365 76.0658) scale(40.7793 43.1468)">
<stop stop-color="#C3D0E3"/>
<stop offset="1" stop-color="#696F7D"/>
</radialGradient>
<radialGradient id="paint57_radial_8923_45251" cx="0" cy="0" r="1" gradientUnits="userSpaceOnUse" gradientTransform="translate(377.355 39.5883) scale(23.9631 25.3544)">
<stop stop-color="#C3D0E3"/>
<stop offset="1" stop-color="#696F7D"/>
</radialGradient>
<radialGradient id="paint58_radial_8923_45251" cx="0" cy="0" r="1" gradientUnits="userSpaceOnUse" gradientTransform="translate(397.114 49.6452) scale(37.332 39.4994)">
<stop stop-color="#54C3FF"/>
<stop offset="1"/>
</radialGradient>
<linearGradient id="paint59_linear_8923_45251" x1="385.848" y1="1.95719" x2="385.848" y2="1.95719" gradientUnits="userSpaceOnUse">
<stop stop-color="#FFDD99"/>
<stop offset="1" stop-color="#FFDD99"/>
</linearGradient>
<linearGradient id="paint60_linear_8923_45251" x1="153.784" y1="0" x2="156.895" y2="0" gradientUnits="userSpaceOnUse">
<stop stop-color="#9C7135"/>
<stop offset="1" stop-color="#572E18"/>
</linearGradient>
<linearGradient id="paint61_linear_8923_45251" x1="154.12" y1="0" x2="161.519" y2="0" gradientUnits="userSpaceOnUse">
<stop stop-color="#A67D5F"/>
<stop offset="1" stop-color="#F0D0AD"/>
</linearGradient>
<clipPath id="clip0_8923_45251">
<rect width="48" height="48" fill="white" transform="translate(56 34)"/>
</clipPath>
</defs>
</svg>
