<svg width="403" height="118" viewBox="0 0 403 118" fill="none" xmlns="http://www.w3.org/2000/svg">
<path d="M17.0684 0.900879H153.784L156.895 1.70156L161.52 0.900879H316.901L319.424 2.32428L323.039 0.900879H385.848L403 19.0493V99.7382L385.848 117.798H329.513L326.739 116.819L324.3 117.798H59.8657L56.4183 116.552L50.3645 117.798H17.0684L0 99.7382V19.0493L17.0684 0.900879Z" fill="#44291B"/>
<path d="M3.69956 20.6506L18.5819 4.81525L17.0684 0.900879L0 19.0493L3.69956 20.6506Z" fill="url(#paint0_linear_8923_45323)"/>
<path d="M18.582 4.8208L3.69971 20.6561L8.07192 22.5243L20.4318 9.44684L18.582 4.8208Z" fill="url(#paint1_linear_8923_45323)"/>
<path d="M18.5818 4.81525H384.334L385.848 0.900879H323.039L319.424 2.32428L316.901 0.900879H161.519L156.895 1.70156L153.784 0.900879H17.0684L18.5818 4.81525Z" fill="url(#paint2_linear_8923_45323)"/>
<path d="M384.334 4.8208H18.5815L20.4313 9.44684H382.568L384.334 4.8208Z" fill="url(#paint3_linear_8923_45323)"/>
<path d="M8.07192 96.1825V22.5215L3.69971 20.6533V98.1397L8.07192 96.1825Z" fill="url(#paint4_linear_8923_45323)"/>
<path d="M3.69956 98.1424V20.656L0 19.0547V99.7437L3.69956 98.1424Z" fill="url(#paint5_linear_8923_45323)"/>
<path d="M20.4318 109.348L8.07192 96.1812L3.69971 98.1383L18.582 113.974L20.4318 109.348Z" fill="url(#paint6_linear_8923_45323)"/>
<path d="M18.5819 113.976L3.69956 98.1411L0 99.7424L17.0684 117.802L18.5819 113.976Z" fill="url(#paint7_linear_8923_45323)"/>
<path d="M20.4313 109.352L18.5815 113.978H384.334L382.568 109.352H20.4313Z" fill="url(#paint8_linear_8923_45323)"/>
<path d="M384.334 113.974H18.5818L17.0684 117.799H50.3644L56.4183 116.554L59.8656 117.799H324.3L326.739 116.82L329.513 117.799H385.848L384.334 113.974Z" fill="url(#paint9_linear_8923_45323)"/>
<path d="M394.928 96.1812L382.568 109.348L384.334 113.974L399.3 98.1383L394.928 96.1812Z" fill="url(#paint10_linear_8923_45323)"/>
<path d="M399.3 98.1411L384.334 113.976L385.847 117.802L403 99.7424L399.3 98.1411Z" fill="url(#paint11_linear_8923_45323)"/>
<path d="M394.928 96.1825L399.3 98.1397V20.6533L394.928 22.5215V96.1825Z" fill="url(#paint12_linear_8923_45323)"/>
<path d="M399.3 20.656V98.1424L402.999 99.7437V19.0547L399.3 20.656Z" fill="url(#paint13_linear_8923_45323)"/>
<path d="M382.568 9.44684L394.928 22.5243L399.3 20.6561L384.334 4.8208L382.568 9.44684Z" fill="url(#paint14_linear_8923_45323)"/>
<path d="M384.334 4.81525L399.3 20.6506L403 19.0493L385.847 0.900879L384.334 4.81525Z" fill="url(#paint15_linear_8923_45323)"/>
<path d="M20.4317 9.44238H382.568L394.928 22.5199V96.1808L382.568 109.347H20.4317L8.07178 96.1808V22.5199L20.4317 9.44238Z" fill="#006070"/>
<path d="M20.4317 9.44238H59.6975L61.6314 11.3996L62.4722 9.44238H152.018L153.196 11.2216L155.97 9.44238H382.568L394.928 22.5199V36.0422L393.331 38.5331L394.928 40.1345V64.0654L393.079 65.3998L394.928 67.446V96.1808L382.568 109.347H59.6134L57.9318 107.301L55.6616 109.347H20.4317L8.07178 96.1808V73.5844L10.426 71.1824L8.07178 69.4031V22.5199L20.4317 9.44238Z" fill="url(#paint16_linear_8923_45323)"/>
<path d="M25.3084 21.8082L20.4317 9.44238L8.07178 22.5199L19.759 27.6797L25.3084 21.8082Z" fill="url(#paint17_linear_8923_45323)"/>
<path d="M19.759 91.1131V27.6828L8.07178 22.5229V69.4062L10.426 71.1854L8.07178 73.5874V96.1839L19.759 91.1131Z" fill="url(#paint18_linear_8923_45323)"/>
<path d="M19.759 91.1143L8.07178 96.1851L20.4317 109.352L25.3084 96.9858L19.759 91.1143Z" fill="url(#paint19_linear_8923_45323)"/>
<path d="M25.3078 96.9805L20.4312 109.346H55.6611L57.9313 107.3L59.6129 109.346H382.568L377.691 96.9805H25.3078Z" fill="url(#paint20_linear_8923_45323)"/>
<path d="M25.3078 21.8082H377.691L382.568 9.44238H155.97L153.195 11.2216L152.018 9.44238H62.4716L61.6308 11.3996L59.697 9.44238H20.4312L25.3078 21.8082Z" fill="url(#paint21_linear_8923_45323)"/>
<path d="M382.569 9.44238L377.692 21.8082L383.241 27.6797L394.928 22.5199L382.569 9.44238Z" fill="url(#paint22_linear_8923_45323)"/>
<path d="M394.928 22.5229L383.241 27.6828V91.1131L394.928 96.1839V67.449L393.078 65.4029L394.928 64.0684V40.1375L393.33 38.5362L394.928 36.0452V22.5229Z" fill="url(#paint23_linear_8923_45323)"/>
<path d="M394.928 96.1851L383.241 91.1143L377.692 96.9858L382.569 109.352L394.928 96.1851Z" fill="#666666"/>
<path style="mix-blend-mode:screen" d="M22.1972 25.1044C22.7858 24.0368 23.8789 22.6134 23.963 21.368C24.1311 19.8556 21.5246 12.5607 20.936 10.6035C21.7768 12.4717 24.5515 19.1439 25.8127 20.1225C26.3172 20.4783 26.9899 20.6563 27.6625 20.7452C28.5033 20.7452 28.8396 20.6563 29.5964 21.1901C30.269 21.6349 31.0258 21.368 31.7825 21.1901C32.7074 21.0121 33.1278 20.9231 34.1367 20.9231C35.3699 20.9825 36.5751 21.0418 37.7522 21.1011C38.3688 21.1011 38.9854 21.1011 39.602 21.1011C40.2747 21.1604 40.9193 21.1901 41.5359 21.1901C42.0964 21.1901 42.685 21.2197 43.3016 21.279C43.9182 21.279 44.5628 21.279 45.2354 21.279C45.852 21.3383 46.4686 21.368 47.0852 21.368C48.2624 21.4273 49.4395 21.4866 50.6166 21.5459C51.8498 21.5459 53.111 21.5756 54.4003 21.6349C55.0169 21.6349 55.6334 21.6645 56.25 21.7238C57.259 21.7238 58.296 21.7535 59.361 21.8128C60.2019 21.8128 58.7725 21.8128 58.6884 21.8128C57.4552 21.8721 56.194 21.9017 54.9048 21.9017C47.2254 22.0204 39.546 22.1686 31.8666 22.3466C31.1098 22.3466 30.4372 22.4355 29.6805 22.4355C29.0078 22.3466 28.4192 22.4355 27.8307 22.4355C27.158 22.4355 26.5134 22.5245 25.8968 22.7024C24.4674 23.1472 23.2903 24.2148 22.1972 25.1044Z" fill="url(#paint24_radial_8923_45323)"/>
<path style="mix-blend-mode:screen" opacity="0.5" d="M22.5336 94.0474C23.1221 95.1149 24.047 96.1825 24.2152 97.4279C24.4674 98.8513 21.5246 106.146 20.936 108.103C21.7768 106.324 24.5515 99.652 25.8127 98.6734C26.3172 98.3176 26.9899 98.0507 27.6625 98.0507L56.4182 96.9831L27.8307 96.3604C27.158 96.3604 26.5134 96.2418 25.8968 96.0045C24.4674 95.5597 23.7107 94.937 22.5336 94.0474Z" fill="url(#paint25_radial_8923_45323)"/>
<path style="mix-blend-mode:screen" d="M380.803 25.1044C380.13 24.0368 379.037 22.6134 378.953 21.368C378.869 19.8556 381.475 12.5607 382.064 10.6035C381.223 12.4717 378.448 19.1439 377.187 20.1225C376.683 20.4783 376.01 20.7452 375.337 20.7452C370.965 20.7452 366.593 20.7452 362.221 20.7452C360.371 20.8342 358.353 21.4569 356.503 21.4569C355.494 21.5459 354.149 20.4783 353.308 20.4783C352.467 20.3894 351.879 20.8342 348.431 20.8342C346.077 20.8342 343.723 20.8342 341.369 20.8342C339.687 20.8342 339.939 19.4998 337.837 20.2115C336.66 20.6563 336.492 20.8342 335.315 20.8342C328.588 20.9232 322.619 21.0121 315.892 20.9231C313.622 20.9231 310.931 19.3218 309.25 20.0335C308.829 20.2114 308.409 20.6563 307.652 20.7452C306.727 20.9232 306.307 20.9231 305.298 20.9231C254.849 21.0121 204.401 21.1011 153.952 21.8128C197.842 22.2576 241.817 22.2576 285.791 22.3466C293.611 22.3466 301.514 22.3466 309.334 22.3466C311.015 22.3466 312.613 22.3466 314.295 22.3466C314.631 22.3466 314.995 22.3466 315.388 22.3466C322.338 22.3466 329.289 22.3466 336.24 22.3466C336.996 22.3466 338.342 22.6135 339.183 22.6135C340.023 22.7024 340.107 22.4355 340.864 22.3466C341.453 22.3466 342.378 22.3466 343.05 22.3466C346.498 22.3466 350.029 22.3466 353.476 22.3466C358.353 22.4355 363.146 22.3466 367.938 22.3466C370.349 22.4059 372.759 22.4355 375.169 22.4355C375.842 22.4355 376.486 22.5245 377.103 22.7024C378.532 23.1472 379.625 24.2148 380.803 25.1044Z" fill="url(#paint26_radial_8923_45323)"/>
<path d="M394.928 96.1851L383.241 91.1143L377.692 96.9858L382.569 109.352L394.928 96.1851Z" fill="url(#paint27_linear_8923_45323)"/>
<path style="mix-blend-mode:screen" opacity="0.5" d="M380.803 93.6931C381.812 92.9814 382.484 92.5366 383.661 92.4476C385.091 92.2697 391.986 95.1165 393.751 95.7392C392.07 94.7606 385.764 91.8249 384.839 90.4904C384.502 89.9567 384.306 89.3339 384.25 88.6222L383.241 65.2251L382.653 88.3554C382.653 90.4905 381.98 92.0028 380.803 93.6931Z" fill="url(#paint28_radial_8923_45323)"/>
<path style="mix-blend-mode:screen" opacity="0.5" d="M380.299 94.1377C379.626 95.2942 379.037 96.1838 378.953 97.4293C378.869 98.9417 381.476 106.148 382.064 108.105C381.223 106.326 378.533 99.4755 377.188 98.6748C375.674 97.6962 351.206 97.2514 346.582 96.9845C352.047 96.5397 373.404 96.9845 377.188 96.2728C378.617 96.0059 379.374 95.1163 380.299 94.1377Z" fill="url(#paint29_radial_8923_45323)"/>
<path style="mix-blend-mode:screen" opacity="0.5" d="M22.1971 93.6928C21.1881 92.9811 20.5155 92.5363 19.3384 92.4473C17.8249 92.2694 11.0143 95.1162 9.16455 95.7389C10.9303 94.7603 17.2363 91.8246 18.0771 90.4901C18.4975 89.9563 18.6657 89.3336 18.7498 88.6219L19.7588 71.4521L20.2632 88.355C20.3473 90.4901 21.02 92.0025 22.1971 93.6928Z" fill="url(#paint30_radial_8923_45323)"/>
<path style="mix-blend-mode:screen" d="M22.1971 25.1042C21.1881 25.8159 20.5155 26.2607 19.3384 26.3497C17.8249 26.4387 11.0143 23.6808 9.16455 23.0581C10.9303 23.9477 17.2363 26.8835 18.0771 28.2179C18.4975 28.7517 18.6657 29.4634 18.7498 30.1751C18.7498 31.0647 18.7498 31.9544 18.7498 32.755C18.8339 33.9115 19.1702 34.9791 19.3384 36.0466C19.4224 36.6693 19.7588 38.2707 19.5065 38.8045C19.2543 39.4272 19.002 39.0713 19.002 40.0499C19.002 40.6727 19.002 41.2954 19.0861 41.8292C19.0861 43.727 19.1141 45.6249 19.1702 47.5228C19.2262 48.2345 19.2543 48.9165 19.2543 49.5689C19.4224 55.0253 19.5906 60.5113 19.7588 66.027C19.7588 64.7222 19.7868 63.4174 19.8428 62.1126C19.8428 59.4438 19.8709 56.7749 19.9269 54.106C20.011 49.391 20.011 44.587 20.1792 39.783C20.1792 38.8934 20.2632 38.0928 20.2632 37.2031C20.2632 36.3135 20.2632 35.4239 20.2632 34.5343C20.2632 33.1702 20.2632 31.8061 20.2632 30.442C20.3473 28.3069 21.02 26.7945 22.1971 25.1042Z" fill="url(#paint31_radial_8923_45323)"/>
<path d="M316.901 0.900879L317.994 4.37044L319.423 2.32428L316.901 0.900879Z" fill="url(#paint32_linear_8923_45323)"/>
<path d="M319.424 2.32428L317.995 4.37044L323.039 0.900879L319.424 2.32428Z" fill="url(#paint33_linear_8923_45323)"/>
<path d="M50.3643 117.802L57.4271 111.93L56.4181 116.556L50.3643 117.802Z" fill="url(#paint34_linear_8923_45323)"/>
<path d="M59.8653 117.802L56.418 116.556L57.4269 111.93L59.8653 117.802Z" fill="url(#paint35_linear_8923_45323)"/>
<path d="M324.3 117.8L325.982 114.509L326.739 116.822L324.3 117.8Z" fill="url(#paint36_linear_8923_45323)"/>
<path d="M326.739 116.822L329.513 117.8L325.982 114.509L326.739 116.822Z" fill="url(#paint37_linear_8923_45323)"/>
<path style="mix-blend-mode:screen" d="M11.3511 12.4674L17.9935 4.37183L17.489 1.88086L18.8343 4.01595L144.451 4.81664L18.9184 5.52833L11.3511 12.4674Z" fill="url(#paint38_radial_8923_45323)"/>
<path style="mix-blend-mode:screen" d="M391.649 12.4674L385.007 4.37183L385.511 1.88086L384.166 4.01595L319.255 4.37183C318.667 4.54975 318.078 4.63871 317.658 4.72767C317.574 4.72767 317.321 4.63869 316.733 4.46077L258.549 4.81664L384.082 5.52833L391.649 12.4674Z" fill="url(#paint39_radial_8923_45323)"/>
<path style="mix-blend-mode:screen" d="M11.3511 106.238L17.9935 114.422L17.489 116.913L18.8343 114.778C26.9901 114.689 47.6741 114.422 54.2324 113.978C46.1606 113.266 27.5787 113.622 18.9184 113.266L11.3511 106.238ZM59.4454 113.889C61.127 114.155 62.8086 114.422 64.4903 114.422L144.451 113.889L63.229 113.444C61.9678 113.444 60.6225 113.622 59.4454 113.889Z" fill="url(#paint40_radial_8923_45323)"/>
<path style="mix-blend-mode:screen" d="M391.649 106.238L385.007 114.422L385.511 116.913L384.166 114.778L258.549 113.978L384.082 113.266L391.649 106.238Z" fill="url(#paint41_radial_8923_45323)"/>
<path style="mix-blend-mode:multiply" d="M152.018 9.44238C150.897 13.594 149.411 17.7159 147.562 21.8082C144.283 25.8115 140.331 29.9038 136.379 33.9071C140.751 29.9927 145.039 25.9894 149.075 21.8082C150.336 17.7159 151.766 14.3353 153.195 11.2216L152.018 9.44238Z" fill="url(#paint42_radial_8923_45323)"/>
<path style="mix-blend-mode:screen" d="M153.195 11.2216C151.766 14.3353 150.336 17.7159 149.075 21.8082C145.039 25.9894 140.751 29.9927 136.379 33.9071C141.34 29.6369 146.216 25.7225 151.261 21.8082C152.102 17.6269 153.784 13.5347 155.97 9.44238L153.195 11.2216Z" fill="url(#paint43_radial_8923_45323)"/>
<path style="mix-blend-mode:multiply" d="M112.248 21.8097C111.911 19.6746 111.407 17.4505 110.902 15.3154C110.902 17.4505 110.818 19.5856 110.482 21.8097C109.557 25.4571 108.044 28.9267 106.278 32.4852C108.632 29.5494 111.07 26.0799 112.248 21.8097Z" fill="url(#paint44_radial_8923_45323)"/>
<path style="mix-blend-mode:screen" d="M114.434 21.8097C112.836 19.8525 111.827 17.5395 110.902 15.3154C111.407 17.4505 111.911 19.6746 112.248 21.8097C111.07 26.0799 108.632 29.5494 106.278 32.4852C109.725 29.3715 112.92 25.902 114.434 21.8097Z" fill="url(#paint45_radial_8923_45323)"/>
<path style="mix-blend-mode:multiply" d="M62.7244 21.8082C57.1751 34.174 49.1033 46.0949 41.4519 57.4821C37.5842 60.151 27.9149 64.5102 19.759 67.8908C16.564 68.8694 11.9395 69.4921 8.07178 69.4031L10.426 71.1824C13.509 70.5893 16.62 69.9962 19.759 69.4031C27.2422 66.4674 37.8364 60.9517 41.8723 57.927C49.7759 47.8742 59.0248 32.9285 63.9856 21.8082C63.2009 18.3683 62.4161 14.8988 61.6314 11.3996L59.6975 9.44238C61.211 13.4457 62.3881 17.538 62.7244 21.8082Z" fill="url(#paint46_radial_8923_45323)"/>
<path style="mix-blend-mode:screen" d="M63.9856 21.8082C59.0248 32.9285 49.7759 47.8742 41.8723 57.927C37.8364 60.9517 27.2422 66.4674 19.759 69.4031C16.62 69.9962 13.509 70.5893 10.426 71.1824L8.07178 73.5844C12.3599 71.8051 16.7321 71.2713 19.759 71.1824C27.2422 67.0011 35.314 62.9978 42.8813 59.2614C50.869 46.1839 58.6885 34.3519 66.3399 21.8082C64.4901 18.5166 62.9767 14.0684 62.4722 9.44238L61.6314 11.3996C62.4161 14.8988 63.2009 18.3683 63.9856 21.8082Z" fill="url(#paint47_radial_8923_45323)"/>
<path style="mix-blend-mode:screen" d="M66.6762 20.7434C64.9946 20.7434 63.1448 16.1174 61.8836 12.292C62.5562 15.4353 63.2569 18.6083 63.9856 21.811C62.6403 24.8357 60.9587 28.1273 59.1089 31.5079C61.0427 28.3942 63.9015 22.8785 66.7603 22.7896C68.6941 22.7006 70.5439 22.7006 72.3937 22.7006C73.3186 22.7006 74.2435 22.5227 75.1684 22.5227C76.1773 22.5227 77.1022 22.5227 78.1112 22.4337C79.5406 22.3448 80.9699 22.3447 82.3152 22.3447C90.0507 22.1668 97.7021 21.9889 105.353 21.811C105.858 21.811 104.429 21.811 104.344 21.811C95.9364 21.5441 87.5283 21.2772 79.1202 21.0993C78.4475 21.0103 78.2793 21.0993 77.6067 21.2772C76.7659 21.4551 75.841 21.0993 75.0002 21.0993C74.8881 21.0993 74.7479 21.0993 74.5798 21.0993C73.9912 21.1882 73.8231 21.4551 72.9822 21.4551C72.2255 21.5441 70.9643 21.3662 70.2076 21.2772C69.619 21.0993 69.5349 20.8324 68.8623 20.8324C68.1056 20.8324 67.3488 20.8324 66.6762 20.7434Z" fill="url(#paint48_radial_8923_45323)"/>
<path style="mix-blend-mode:screen" opacity="0.5" d="M59.1088 96.9816C58.8565 101.074 58.6884 103.209 57.9316 107.301L59.6133 109.347C59.361 105.166 59.9496 100.896 60.37 96.9816C61.6312 93.601 63.1447 90.2204 64.9104 86.8398C62.5561 90.0425 60.7904 93.512 59.1088 96.9816Z" fill="url(#paint49_radial_8923_45323)"/>
<path style="mix-blend-mode:screen" opacity="0.5" d="M63.3127 96.1824C60.7062 96.1824 61.7152 94.5811 62.3038 92.2681C61.6311 93.8101 60.9865 95.3817 60.3699 96.9831C60.1177 99.2961 59.7813 101.698 59.6973 104.1C60.1177 100.986 60.9585 97.8727 62.556 97.8727C64.2376 97.8727 65.9193 97.7838 67.6009 97.7838C68.1894 97.7838 68.6939 97.7837 69.2825 97.6948C70.1233 97.6948 70.6278 97.6058 71.3845 97.6948C72.3935 97.6948 73.4025 97.6948 74.4114 97.6948C88.537 97.3389 102.747 97.25 116.872 96.9831C117.993 96.9831 119.114 96.9831 120.236 96.9831C115.247 96.8645 110.258 96.7755 105.269 96.7162C103.419 96.7162 101.57 96.7162 99.7198 96.7162C97.814 96.6569 95.9081 96.6272 94.0023 96.6272C87.0516 96.5086 80.1009 96.4197 73.1502 96.3603C72.4776 96.3603 71.9731 96.3603 71.3845 96.6272C70.796 96.9831 70.0392 96.8052 69.4507 96.8052C67.9372 96.7162 66.676 96.2714 65.1625 96.2714C64.5459 96.2121 63.9293 96.1824 63.3127 96.1824Z" fill="url(#paint50_radial_8923_45323)"/>
<path style="mix-blend-mode:multiply" d="M57.6796 96.9816C57.4273 101.074 57.1751 105.255 55.6616 109.347L57.9318 107.301C58.6885 103.209 58.8567 101.074 59.1089 96.9816C60.7906 93.512 62.5563 90.0425 64.9105 86.8398C62.1359 90.0425 59.7816 93.4231 57.6796 96.9816Z" fill="url(#paint51_radial_8923_45323)"/>
<path style="mix-blend-mode:multiply" d="M258.549 96.9803C261.071 94.4004 262.248 92.888 264.602 90.7529C263.341 92.7101 262.5 94.7562 261.744 96.9803C259.81 99.5602 258.128 102.318 256.699 105.432C257.119 102.941 258.212 99.9161 258.549 96.9803Z" fill="url(#paint52_radial_8923_45323)"/>
<path style="mix-blend-mode:screen" opacity="0.5" d="M261.744 96.9803C259.81 99.5602 258.128 102.318 256.699 105.432C259.978 101.073 261.828 100.272 264.686 96.9803C264.771 94.9342 264.77 92.5322 264.602 90.7529C263.341 92.7101 262.5 94.7562 261.744 96.9803Z" fill="url(#paint53_radial_8923_45323)"/>
<path style="mix-blend-mode:screen" opacity="0.5" d="M263.762 91.4688L260.062 94.4045C259.109 95.1162 258.1 95.5907 257.035 95.8279C256.418 96.0058 255.746 96.0948 255.017 96.0948C254.092 96.0948 253.083 96.0948 252.074 96.1838C250.897 96.1838 249.72 96.4506 248.627 96.7175C248.122 96.8955 247.534 96.9844 247.029 96.7175C246.693 96.5396 246.693 96.4506 246.273 96.2727C245.852 96.1838 245.096 96.1838 244.675 96.1838C241.536 96.2431 238.397 96.2727 235.258 96.2727C233.745 96.3617 232.315 96.2727 230.886 96.3617C230.297 96.3617 229.961 96.3617 229.457 96.7175C228.868 97.0734 227.691 96.8065 227.018 96.6286C226.261 96.5396 225.925 96.3617 225.084 96.4507C224.075 96.4507 223.038 96.4507 221.973 96.4507C218.218 96.4507 214.462 96.4803 210.706 96.5396C209.417 96.5396 208.156 96.5693 206.923 96.6286C202.495 96.6286 198.066 96.6582 193.638 96.7175C193.021 96.7175 192.405 96.7175 191.788 96.7175C186.799 96.7768 181.783 96.8362 176.738 96.8955C174.664 96.8955 172.562 96.9251 170.432 96.9844C172.337 96.9844 174.243 96.9844 176.149 96.9844C181.811 97.0437 187.472 97.103 193.134 97.1623C194.367 97.1623 195.628 97.1623 196.917 97.1623C198.767 97.1623 200.645 97.192 202.551 97.2513C206.923 97.2513 211.295 97.281 215.667 97.3403C216.9 97.3403 218.162 97.3403 219.451 97.3403C221.357 97.3403 223.234 97.3699 225.084 97.4292C225.841 97.4292 226.43 97.4292 227.102 97.5182C228.111 97.5182 228.784 97.5182 229.793 97.5182C230.718 97.4292 231.727 97.4292 232.652 97.4292C235.118 97.4885 237.612 97.5182 240.135 97.5182C241.929 97.5182 243.75 97.5479 245.6 97.6072C246.329 97.6072 247.057 97.6072 247.786 97.6072C248.879 97.6072 249.888 97.6072 250.981 97.6072C251.318 97.6072 251.654 97.6072 251.99 97.6072C253.055 97.6072 254.092 97.6368 255.101 97.6961C255.774 97.6961 256.531 97.7851 256.951 98.2299C257.54 98.9416 257.203 102.144 257.035 103.835C257.54 101.699 258.296 99.2974 258.549 96.9844C260.735 94.7603 261.912 93.248 263.762 91.4688Z" fill="url(#paint54_radial_8923_45323)"/>
<path style="mix-blend-mode:screen" opacity="0.5" d="M393.078 65.4002C389.771 64.6885 386.492 63.9768 383.241 63.2651C379.373 63.7989 375.506 64.2437 371.89 65.1334C359.446 71.0049 332.456 89.8649 323.964 96.9819C324.58 101.074 325.197 105.196 325.814 109.348H326.318C326.486 105.255 326.57 101.074 325.814 96.9819C340.612 85.2389 354.317 75.453 372.142 66.2899C375.421 65.2223 379.541 64.1548 383.241 64.3327C387.193 65.0444 391.06 66.2009 394.928 67.4464L393.078 65.4002Z" fill="url(#paint55_radial_8923_45323)"/>
<path style="mix-blend-mode:multiply" d="M383.241 63.2665C386.492 63.9782 389.771 64.6899 393.079 65.4016L394.928 64.0671C391.005 63.7113 387.109 63.0292 383.241 62.021C379.542 62.9996 375.506 63.5334 371.47 63.9782C354.149 74.1199 337.921 85.2402 322.535 96.9833C323.712 101.164 324.216 105.257 324.384 109.349H325.814C325.197 105.197 324.581 101.076 323.964 96.9833C332.456 89.8663 359.446 71.0062 371.89 65.1347C375.506 64.2451 379.373 63.8002 383.241 63.2665Z" fill="url(#paint56_radial_8923_45323)"/>
<path style="mix-blend-mode:multiply" d="M394.928 36.041C391.481 36.9306 387.277 37.7313 383.241 37.5534C378.533 39.9554 374.076 41.8236 368.443 43.4249C373.656 42.5353 379.542 40.845 383.241 39.3326C387.109 38.7989 389.379 38.6209 393.331 38.532L394.928 36.041Z" fill="url(#paint57_radial_8923_45323)"/>
<path style="mix-blend-mode:screen" d="M393.331 38.5361C389.379 38.6251 387.109 38.803 383.241 39.3368C379.542 40.8492 373.656 42.5394 368.443 43.4291C373.572 43.518 378.953 42.1836 383.241 40.7602C387.193 40.0485 391.229 39.6926 394.928 40.1374L393.331 38.5361Z" fill="url(#paint58_radial_8923_45323)"/>
<path style="mix-blend-mode:screen" d="M18.5818 4.81525H384.334L385.848 0.900879H323.039L319.424 2.32428L316.901 0.900879H161.519L156.895 1.70156L153.784 0.900879H17.0684L18.5818 4.81525Z" fill="url(#paint59_linear_8923_45323)"/>
<path d="M153.784 0.900879L154.12 5.61591L156.895 1.70156L153.784 0.900879Z" fill="url(#paint60_linear_8923_45323)"/>
<path d="M156.895 1.70156L154.12 5.61591L161.519 0.900879L156.895 1.70156Z" fill="url(#paint61_linear_8923_45323)"/>
<g clip-path="url(#clip0_8923_45323)">
<g filter="url(#filter0_dddd_8923_45323)">
<path d="M47 54.9009C51.4183 54.9009 55 51.3192 55 46.9009C55 42.4826 51.4183 38.9009 47 38.9009C42.5817 38.9009 39 42.4826 39 46.9009C39 51.3192 42.5817 54.9009 47 54.9009Z" fill="#FFF4CB"/>
</g>
<g filter="url(#filter1_dddd_8923_45323)">
<path d="M63 69.9009C63 74.8709 63 78.9009 47 78.9009C31 78.9009 31 74.8709 31 69.9009C31 64.9309 38.164 60.9009 47 60.9009C55.836 60.9009 63 64.9309 63 69.9009Z" fill="#FFF4CB"/>
</g>
</g>
<g filter="url(#filter2_dddd_8923_45323)">
<path d="M104.095 47.3409V62.2849C104.095 64.8235 103.402 66.7649 102.015 68.1089C100.65 69.4529 98.762 70.1249 96.3514 70.1249C93.7914 70.1249 91.7434 69.4102 90.2074 67.9809C88.6927 66.5515 87.9354 64.4929 87.9354 61.8049H94.1434C94.1647 63.5755 94.8154 64.4609 96.0954 64.4609C97.2474 64.4609 97.8234 63.7355 97.8234 62.2849V47.3409H104.095ZM118.655 70.1249C116.543 70.1249 114.602 69.6342 112.831 68.6529C111.06 67.6502 109.652 66.2742 108.607 64.5249C107.583 62.7542 107.071 60.7595 107.071 58.5409C107.071 56.3222 107.583 54.3382 108.607 52.5889C109.652 50.8182 111.06 49.4422 112.831 48.4609C114.602 47.4795 116.543 46.9889 118.655 46.9889C120.788 46.9889 122.73 47.4795 124.479 48.4609C126.25 49.4422 127.647 50.8182 128.671 52.5889C129.695 54.3382 130.207 56.3222 130.207 58.5409C130.207 60.7595 129.695 62.7542 128.671 64.5249C127.647 66.2742 126.25 67.6502 124.479 68.6529C122.708 69.6342 120.767 70.1249 118.655 70.1249ZM118.655 64.3009C120.255 64.3009 121.514 63.7782 122.431 62.7329C123.37 61.6875 123.839 60.2902 123.839 58.5409C123.839 56.7489 123.37 55.3409 122.431 54.3169C121.514 53.2715 120.255 52.7489 118.655 52.7489C117.034 52.7489 115.764 53.2715 114.847 54.3169C113.93 55.3409 113.471 56.7489 113.471 58.5409C113.471 60.3115 113.93 61.7195 114.847 62.7649C115.764 63.7889 117.034 64.3009 118.655 64.3009ZM139.298 47.3409V69.9009H133.026V47.3409H139.298ZM163.766 69.9009H157.494L149.142 57.2929V69.9009H142.87V47.3409H149.142L157.494 60.1089V47.3409H163.766V69.9009ZM205.24 47.3409L199.704 69.9009H191.992L188.888 56.0769L185.72 69.9009H178.008L172.536 47.3409H179.32L181.944 62.7649L185.496 47.3409H192.376L195.832 62.6369L198.456 47.3409H205.24ZM214.173 47.3409V69.9009H207.901V47.3409H214.173ZM234.737 47.3409V52.3329H228.721V69.9009H222.449V52.3329H216.497V47.3409H234.737ZM257.25 47.3409V69.9009H250.978V60.8449H243.33V69.9009H237.058V47.3409H243.33V55.8209H250.978V47.3409H257.25ZM282.26 47.3409V52.3329H273.236V56.3009H279.892V61.0689H273.236V69.9009H266.964V47.3409H282.26ZM296.325 69.9009L291.845 61.5809H291.173V69.9009H284.901V47.3409H294.789C296.603 47.3409 298.139 47.6609 299.397 48.3009C300.656 48.9195 301.605 49.7835 302.245 50.8929C302.885 51.9809 303.205 53.2075 303.205 54.5729C303.205 56.1089 302.779 57.4635 301.925 58.6369C301.093 59.7889 299.867 60.6102 298.245 61.1009L303.333 69.9009H296.325ZM291.173 57.2929H294.277C295.131 57.2929 295.771 57.0902 296.197 56.6849C296.624 56.2795 296.837 55.6929 296.837 54.9249C296.837 54.1995 296.613 53.6342 296.165 53.2289C295.739 52.8022 295.109 52.5889 294.277 52.5889H291.173V57.2929ZM312.33 47.3409V69.9009H306.058V47.3409H312.33ZM322.173 52.3649V56.0449H329.373V60.8129H322.173V64.8769H330.333V69.9009H315.901V47.3409H330.333V52.3649H322.173ZM354.329 69.9009H348.057L339.705 57.2929V69.9009H333.433V47.3409H339.705L348.057 60.1089V47.3409H354.329V69.9009ZM366.829 47.3409C369.197 47.3409 371.267 47.8209 373.037 48.7809C374.829 49.7195 376.205 51.0422 377.165 52.7489C378.125 54.4555 378.605 56.4075 378.605 58.6049C378.605 60.7809 378.115 62.7222 377.133 64.4289C376.173 66.1355 374.797 67.4795 373.005 68.4609C371.235 69.4209 369.176 69.9009 366.829 69.9009H357.901V47.3409H366.829ZM366.349 64.3649C368.184 64.3649 369.624 63.8635 370.669 62.8609C371.715 61.8582 372.237 60.4395 372.237 58.6049C372.237 56.7489 371.715 55.3195 370.669 54.3169C369.624 53.2929 368.184 52.7809 366.349 52.7809H364.173V64.3649H366.349Z" fill="#FFF4CB"/>
</g>
<defs>
<filter id="filter0_dddd_8923_45323" x="34.8408" y="32.6621" width="28.4775" height="28.4775" filterUnits="userSpaceOnUse" color-interpolation-filters="sRGB">
<feFlood flood-opacity="0" result="BackgroundImageFix"/>
<feColorMatrix in="SourceAlpha" type="matrix" values="0 0 0 0 0 0 0 0 0 0 0 0 0 0 0 0 0 0 127 0" result="hardAlpha"/>
<feOffset dy="2.07958"/>
<feGaussianBlur stdDeviation="2.07958"/>
<feColorMatrix type="matrix" values="0 0 0 0 0 0 0 0 0 0 0 0 0 0 0 0 0 0 0.2 0"/>
<feBlend mode="overlay" in2="BackgroundImageFix" result="effect1_dropShadow_8923_45323"/>
<feColorMatrix in="SourceAlpha" type="matrix" values="0 0 0 0 0 0 0 0 0 0 0 0 0 0 0 0 0 0 127 0" result="hardAlpha"/>
<feOffset dy="2.07958"/>
<feGaussianBlur stdDeviation="1.03979"/>
<feColorMatrix type="matrix" values="0 0 0 0 0 0 0 0 0 0 0 0 0 0 0 0 0 0 0.22 0"/>
<feBlend mode="overlay" in2="effect1_dropShadow_8923_45323" result="effect2_dropShadow_8923_45323"/>
<feColorMatrix in="SourceAlpha" type="matrix" values="0 0 0 0 0 0 0 0 0 0 0 0 0 0 0 0 0 0 127 0" result="hardAlpha"/>
<feOffset dy="2.07958"/>
<feGaussianBlur stdDeviation="2.07958"/>
<feColorMatrix type="matrix" values="0 0 0 0 0 0 0 0 0 0 0 0 0 0 0 0 0 0 0.24 0"/>
<feBlend mode="overlay" in2="effect2_dropShadow_8923_45323" result="effect3_dropShadow_8923_45323"/>
<feColorMatrix in="SourceAlpha" type="matrix" values="0 0 0 0 0 0 0 0 0 0 0 0 0 0 0 0 0 0 127 0" result="hardAlpha"/>
<feOffset dx="2.07958"/>
<feGaussianBlur stdDeviation="3.11938"/>
<feColorMatrix type="matrix" values="0 0 0 0 0 0 0 0 0 0 0 0 0 0 0 0 0 0 0.35 0"/>
<feBlend mode="normal" in2="effect3_dropShadow_8923_45323" result="effect4_dropShadow_8923_45323"/>
<feBlend mode="normal" in="SourceGraphic" in2="effect4_dropShadow_8923_45323" result="shape"/>
</filter>
<filter id="filter1_dddd_8923_45323" x="26.8408" y="54.6621" width="44.4775" height="30.4775" filterUnits="userSpaceOnUse" color-interpolation-filters="sRGB">
<feFlood flood-opacity="0" result="BackgroundImageFix"/>
<feColorMatrix in="SourceAlpha" type="matrix" values="0 0 0 0 0 0 0 0 0 0 0 0 0 0 0 0 0 0 127 0" result="hardAlpha"/>
<feOffset dy="2.07958"/>
<feGaussianBlur stdDeviation="2.07958"/>
<feColorMatrix type="matrix" values="0 0 0 0 0 0 0 0 0 0 0 0 0 0 0 0 0 0 0.2 0"/>
<feBlend mode="overlay" in2="BackgroundImageFix" result="effect1_dropShadow_8923_45323"/>
<feColorMatrix in="SourceAlpha" type="matrix" values="0 0 0 0 0 0 0 0 0 0 0 0 0 0 0 0 0 0 127 0" result="hardAlpha"/>
<feOffset dy="2.07958"/>
<feGaussianBlur stdDeviation="1.03979"/>
<feColorMatrix type="matrix" values="0 0 0 0 0 0 0 0 0 0 0 0 0 0 0 0 0 0 0.22 0"/>
<feBlend mode="overlay" in2="effect1_dropShadow_8923_45323" result="effect2_dropShadow_8923_45323"/>
<feColorMatrix in="SourceAlpha" type="matrix" values="0 0 0 0 0 0 0 0 0 0 0 0 0 0 0 0 0 0 127 0" result="hardAlpha"/>
<feOffset dy="2.07958"/>
<feGaussianBlur stdDeviation="2.07958"/>
<feColorMatrix type="matrix" values="0 0 0 0 0 0 0 0 0 0 0 0 0 0 0 0 0 0 0.24 0"/>
<feBlend mode="overlay" in2="effect2_dropShadow_8923_45323" result="effect3_dropShadow_8923_45323"/>
<feColorMatrix in="SourceAlpha" type="matrix" values="0 0 0 0 0 0 0 0 0 0 0 0 0 0 0 0 0 0 127 0" result="hardAlpha"/>
<feOffset dx="2.07958"/>
<feGaussianBlur stdDeviation="3.11938"/>
<feColorMatrix type="matrix" values="0 0 0 0 0 0 0 0 0 0 0 0 0 0 0 0 0 0 0.35 0"/>
<feBlend mode="normal" in2="effect3_dropShadow_8923_45323" result="effect4_dropShadow_8923_45323"/>
<feBlend mode="normal" in="SourceGraphic" in2="effect4_dropShadow_8923_45323" result="shape"/>
</filter>
<filter id="filter2_dddd_8923_45323" x="83.7764" y="40.75" width="303.147" height="35.6137" filterUnits="userSpaceOnUse" color-interpolation-filters="sRGB">
<feFlood flood-opacity="0" result="BackgroundImageFix"/>
<feColorMatrix in="SourceAlpha" type="matrix" values="0 0 0 0 0 0 0 0 0 0 0 0 0 0 0 0 0 0 127 0" result="hardAlpha"/>
<feOffset dy="2.07958"/>
<feGaussianBlur stdDeviation="2.07958"/>
<feColorMatrix type="matrix" values="0 0 0 0 0 0 0 0 0 0 0 0 0 0 0 0 0 0 0.2 0"/>
<feBlend mode="overlay" in2="BackgroundImageFix" result="effect1_dropShadow_8923_45323"/>
<feColorMatrix in="SourceAlpha" type="matrix" values="0 0 0 0 0 0 0 0 0 0 0 0 0 0 0 0 0 0 127 0" result="hardAlpha"/>
<feOffset dy="2.07958"/>
<feGaussianBlur stdDeviation="1.03979"/>
<feColorMatrix type="matrix" values="0 0 0 0 0 0 0 0 0 0 0 0 0 0 0 0 0 0 0.22 0"/>
<feBlend mode="overlay" in2="effect1_dropShadow_8923_45323" result="effect2_dropShadow_8923_45323"/>
<feColorMatrix in="SourceAlpha" type="matrix" values="0 0 0 0 0 0 0 0 0 0 0 0 0 0 0 0 0 0 127 0" result="hardAlpha"/>
<feOffset dy="2.07958"/>
<feGaussianBlur stdDeviation="2.07958"/>
<feColorMatrix type="matrix" values="0 0 0 0 0 0 0 0 0 0 0 0 0 0 0 0 0 0 0.24 0"/>
<feBlend mode="overlay" in2="effect2_dropShadow_8923_45323" result="effect3_dropShadow_8923_45323"/>
<feColorMatrix in="SourceAlpha" type="matrix" values="0 0 0 0 0 0 0 0 0 0 0 0 0 0 0 0 0 0 127 0" result="hardAlpha"/>
<feOffset dx="2.07958"/>
<feGaussianBlur stdDeviation="3.11938"/>
<feColorMatrix type="matrix" values="0 0 0 0 0 0 0 0 0 0 0 0 0 0 0 0 0 0 0.35 0"/>
<feBlend mode="normal" in2="effect3_dropShadow_8923_45323" result="effect4_dropShadow_8923_45323"/>
<feBlend mode="normal" in="SourceGraphic" in2="effect4_dropShadow_8923_45323" result="shape"/>
</filter>
<linearGradient id="paint0_linear_8923_45323" x1="7.65137" y1="-8.79604" x2="28.6764" y2="7.91583" gradientUnits="userSpaceOnUse">
<stop stop-color="#734F34"/>
<stop offset="1" stop-color="#BF9261"/>
</linearGradient>
<linearGradient id="paint1_linear_8923_45323" x1="10.5943" y1="-3.89752" x2="29.5034" y2="11.0647" gradientUnits="userSpaceOnUse">
<stop stop-color="#7A4528"/>
<stop offset="1" stop-color="#572E18"/>
</linearGradient>
<linearGradient id="paint2_linear_8923_45323" x1="201.458" y1="4.81525" x2="201.458" y2="0.900879" gradientUnits="userSpaceOnUse">
<stop stop-color="#F0D497"/>
<stop offset="1" stop-color="#827257"/>
</linearGradient>
<linearGradient id="paint3_linear_8923_45323" x1="201.458" y1="9.44684" x2="201.458" y2="4.8208" gradientUnits="userSpaceOnUse">
<stop stop-color="#572E18"/>
<stop offset="1" stop-color="#9C5833"/>
</linearGradient>
<linearGradient id="paint4_linear_8923_45323" x1="3.69971" y1="20.6533" x2="8.07192" y2="20.6533" gradientUnits="userSpaceOnUse">
<stop stop-color="#754D37"/>
<stop offset="1" stop-color="#42291B"/>
</linearGradient>
<linearGradient id="paint5_linear_8923_45323" x1="0" y1="19.0547" x2="3.69956" y2="19.0547" gradientUnits="userSpaceOnUse">
<stop stop-color="#63482C"/>
<stop offset="1" stop-color="#D6AB62"/>
</linearGradient>
<linearGradient id="paint6_linear_8923_45323" x1="-4.62431" y1="103.565" x2="14.3736" y2="88.519" gradientUnits="userSpaceOnUse">
<stop stop-color="#A67137"/>
<stop offset="1" stop-color="#734F34"/>
</linearGradient>
<linearGradient id="paint7_linear_8923_45323" x1="-9.16483" y1="106.237" x2="11.8545" y2="89.6125" gradientUnits="userSpaceOnUse">
<stop stop-color="#422312"/>
<stop offset="1" stop-color="#7A4528"/>
</linearGradient>
<linearGradient id="paint8_linear_8923_45323" x1="201.458" y1="113.978" x2="201.458" y2="109.352" gradientUnits="userSpaceOnUse">
<stop stop-color="#F0D497"/>
<stop offset="1" stop-color="#827257"/>
</linearGradient>
<linearGradient id="paint9_linear_8923_45323" x1="201.458" y1="117.799" x2="201.458" y2="113.974" gradientUnits="userSpaceOnUse">
<stop stop-color="#42291B"/>
<stop offset="1" stop-color="#754D37"/>
</linearGradient>
<linearGradient id="paint10_linear_8923_45323" x1="389.463" y1="122.692" x2="373.315" y2="104.463" gradientUnits="userSpaceOnUse">
<stop stop-color="#A67137"/>
<stop offset="1" stop-color="#734F34"/>
</linearGradient>
<linearGradient id="paint11_linear_8923_45323" x1="392.069" y1="127.499" x2="374.042" y2="107.24" gradientUnits="userSpaceOnUse">
<stop stop-color="#422312"/>
<stop offset="1" stop-color="#7A4528"/>
</linearGradient>
<linearGradient id="paint12_linear_8923_45323" x1="394.928" y1="20.6533" x2="399.3" y2="20.6533" gradientUnits="userSpaceOnUse">
<stop stop-color="#63482C"/>
<stop offset="1" stop-color="#D6AB62"/>
</linearGradient>
<linearGradient id="paint13_linear_8923_45323" x1="399.3" y1="19.0547" x2="402.999" y2="19.0547" gradientUnits="userSpaceOnUse">
<stop stop-color="#754D37"/>
<stop offset="1" stop-color="#42291B"/>
</linearGradient>
<linearGradient id="paint14_linear_8923_45323" x1="407.54" y1="12.1157" x2="391.393" y2="30.3451" gradientUnits="userSpaceOnUse">
<stop stop-color="#7A4528"/>
<stop offset="1" stop-color="#571818"/>
</linearGradient>
<linearGradient id="paint15_linear_8923_45323" x1="412.165" y1="9.08544" x2="394.142" y2="29.2552" gradientUnits="userSpaceOnUse">
<stop stop-color="#734F34"/>
<stop offset="1" stop-color="#BF9261"/>
</linearGradient>
<linearGradient id="paint16_linear_8923_45323" x1="189.939" y1="109.347" x2="189.939" y2="9.44238" gradientUnits="userSpaceOnUse">
<stop stop-color="#007588"/>
<stop offset="0.467" stop-color="#1DACC4"/>
<stop offset="1" stop-color="#1BC5E1"/>
</linearGradient>
<linearGradient id="paint17_linear_8923_45323" x1="10.8464" y1="-3.36822" x2="34.5925" y2="15.4174" gradientUnits="userSpaceOnUse">
<stop stop-color="#37CBE3"/>
<stop offset="1" stop-color="#ADF3FF"/>
</linearGradient>
<linearGradient id="paint18_linear_8923_45323" x1="8.07178" y1="22.5229" x2="19.759" y2="22.5229" gradientUnits="userSpaceOnUse">
<stop stop-color="#009FBA"/>
<stop offset="1" stop-color="#1ACAE8"/>
</linearGradient>
<linearGradient id="paint19_linear_8923_45323" x1="-0.336318" y1="98.5871" x2="15.2353" y2="86.1981" gradientUnits="userSpaceOnUse">
<stop stop-color="#006070"/>
<stop offset="1" stop-color="#007D92"/>
</linearGradient>
<linearGradient id="paint20_linear_8923_45323" x1="201.289" y1="109.346" x2="201.289" y2="96.9805" gradientUnits="userSpaceOnUse">
<stop stop-color="#006070"/>
<stop offset="1" stop-color="#00778B"/>
</linearGradient>
<linearGradient id="paint21_linear_8923_45323" x1="201.289" y1="21.8082" x2="201.289" y2="9.44238" gradientUnits="userSpaceOnUse">
<stop stop-color="#41CBE2"/>
<stop offset="1" stop-color="#0EBCD9"/>
</linearGradient>
<linearGradient id="paint22_linear_8923_45323" x1="403.421" y1="17.0042" x2="386.739" y2="35.7368" gradientUnits="userSpaceOnUse">
<stop stop-color="#037588"/>
<stop offset="1" stop-color="#03899F"/>
</linearGradient>
<linearGradient id="paint23_linear_8923_45323" x1="383.241" y1="22.5229" x2="394.928" y2="22.5229" gradientUnits="userSpaceOnUse">
<stop stop-color="#028196"/>
<stop offset="1" stop-color="#006070"/>
</linearGradient>
<radialGradient id="paint24_radial_8923_45323" cx="0" cy="0" r="1" gradientUnits="userSpaceOnUse" gradientTransform="translate(27.4103 19.1439) scale(34.305 36.2967)">
<stop stop-color="#54C3FF"/>
<stop offset="1"/>
</radialGradient>
<radialGradient id="paint25_radial_8923_45323" cx="0" cy="0" r="1" gradientUnits="userSpaceOnUse" gradientTransform="translate(27.9988 94.2253) scale(36.6593 38.7876)">
<stop stop-color="#54C3FF"/>
<stop offset="1"/>
</radialGradient>
<radialGradient id="paint26_radial_8923_45323" cx="0" cy="0" r="1" gradientUnits="userSpaceOnUse" gradientTransform="translate(351.795 5.35474) scale(218.106 230.769)">
<stop stop-color="#54C3FF"/>
<stop offset="1"/>
</radialGradient>
<linearGradient id="paint27_linear_8923_45323" x1="384.839" y1="118.337" x2="368.153" y2="99.5147" gradientUnits="userSpaceOnUse">
<stop stop-color="#006070"/>
<stop offset="1" stop-color="#01788A"/>
</linearGradient>
<radialGradient id="paint28_radial_8923_45323" cx="0" cy="0" r="1" gradientUnits="userSpaceOnUse" gradientTransform="translate(386.436 90.5794) scale(41.536 43.9475)">
<stop stop-color="#54C3FF"/>
<stop offset="1"/>
</radialGradient>
<radialGradient id="paint29_radial_8923_45323" cx="0" cy="0" r="1" gradientUnits="userSpaceOnUse" gradientTransform="translate(379.458 98.052) scale(39.2658 41.5455)">
<stop stop-color="#54C3FF"/>
<stop offset="1"/>
</radialGradient>
<radialGradient id="paint30_radial_8923_45323" cx="0" cy="0" r="1" gradientUnits="userSpaceOnUse" gradientTransform="translate(21.02 93.4259) scale(32.7075 34.6064)">
<stop stop-color="#54C3FF"/>
<stop offset="1"/>
</radialGradient>
<radialGradient id="paint31_radial_8923_45323" cx="0" cy="0" r="1" gradientUnits="userSpaceOnUse" gradientTransform="translate(18.8339 22.7023) scale(45.656 48.3066)">
<stop stop-color="#54C3FF"/>
<stop offset="1"/>
</radialGradient>
<linearGradient id="paint32_linear_8923_45323" x1="316.901" y1="0.900879" x2="319.423" y2="0.900879" gradientUnits="userSpaceOnUse">
<stop stop-color="#9C7135"/>
<stop offset="1" stop-color="#572E18"/>
</linearGradient>
<linearGradient id="paint33_linear_8923_45323" x1="317.995" y1="0.900879" x2="323.039" y2="0.900879" gradientUnits="userSpaceOnUse">
<stop stop-color="#A67D5F"/>
<stop offset="1" stop-color="#F0D0AD"/>
</linearGradient>
<linearGradient id="paint34_linear_8923_45323" x1="50.3643" y1="111.93" x2="57.4271" y2="111.93" gradientUnits="userSpaceOnUse">
<stop stop-color="#5C3A28"/>
<stop offset="1" stop-color="#42291B"/>
</linearGradient>
<linearGradient id="paint35_linear_8923_45323" x1="56.418" y1="111.93" x2="59.8653" y2="111.93" gradientUnits="userSpaceOnUse">
<stop stop-color="#734F34"/>
<stop offset="1" stop-color="#A67137"/>
</linearGradient>
<linearGradient id="paint36_linear_8923_45323" x1="324.3" y1="114.509" x2="326.739" y2="114.509" gradientUnits="userSpaceOnUse">
<stop stop-color="#5C3A28"/>
<stop offset="1" stop-color="#42291B"/>
</linearGradient>
<linearGradient id="paint37_linear_8923_45323" x1="325.982" y1="114.509" x2="329.513" y2="114.509" gradientUnits="userSpaceOnUse">
<stop stop-color="#734F34"/>
<stop offset="1" stop-color="#A67137"/>
</linearGradient>
<radialGradient id="paint38_radial_8923_45323" cx="0" cy="0" r="1" gradientUnits="userSpaceOnUse" gradientTransform="translate(24.6359 4.01596) scale(109.053 115.384)">
<stop stop-color="#B0825F"/>
<stop offset="1"/>
</radialGradient>
<radialGradient id="paint39_radial_8923_45323" cx="0" cy="0" r="1" gradientUnits="userSpaceOnUse" gradientTransform="translate(388.37 -0.43217) scale(134.614 142.429)">
<stop stop-color="#B0825F"/>
<stop offset="1"/>
</radialGradient>
<radialGradient id="paint40_radial_8923_45323" cx="0" cy="0" r="1" gradientUnits="userSpaceOnUse" gradientTransform="translate(24.0473 118.515) scale(93.8344 99.2822)">
<stop stop-color="#B0825F"/>
<stop offset="1"/>
</radialGradient>
<radialGradient id="paint41_radial_8923_45323" cx="0" cy="0" r="1" gradientUnits="userSpaceOnUse" gradientTransform="translate(385.175 114.511) scale(113.677 120.277)">
<stop stop-color="#B0825F"/>
<stop offset="1"/>
</radialGradient>
<radialGradient id="paint42_radial_8923_45323" cx="0" cy="0" r="1" gradientUnits="userSpaceOnUse" gradientTransform="translate(146.973 20.5627) scale(16.4799 17.4367)">
<stop stop-color="#C3D0E3"/>
<stop offset="1" stop-color="#696F7D"/>
</radialGradient>
<radialGradient id="paint43_radial_8923_45323" cx="0" cy="0" r="1" gradientUnits="userSpaceOnUse" gradientTransform="translate(154.877 22.9647) scale(27.2422 28.8239)">
<stop stop-color="#54C3FF"/>
<stop offset="1"/>
</radialGradient>
<radialGradient id="paint44_radial_8923_45323" cx="0" cy="0" r="1" gradientUnits="userSpaceOnUse" gradientTransform="translate(115.527 17.2726) scale(17.5729 18.5932)">
<stop stop-color="#C3D0E3"/>
<stop offset="1" stop-color="#696F7D"/>
</radialGradient>
<radialGradient id="paint45_radial_8923_45323" cx="0" cy="0" r="1" gradientUnits="userSpaceOnUse" gradientTransform="translate(117.292 23.6779) scale(24.1312 25.5322)">
<stop stop-color="#54C3FF"/>
<stop offset="1"/>
</radialGradient>
<radialGradient id="paint46_radial_8923_45323" cx="0" cy="0" r="1" gradientUnits="userSpaceOnUse" gradientTransform="translate(35.9026 41.5579) scale(39.6021 41.9013)">
<stop stop-color="#C3D0E3"/>
<stop offset="1" stop-color="#696F7D"/>
</radialGradient>
<radialGradient id="paint47_radial_8923_45323" cx="0" cy="0" r="1" gradientUnits="userSpaceOnUse" gradientTransform="translate(54.5686 54.9912) scale(73.0664 77.3084)">
<stop stop-color="#63C8FF"/>
<stop offset="1"/>
</radialGradient>
<radialGradient id="paint48_radial_8923_45323" cx="0" cy="0" r="1" gradientUnits="userSpaceOnUse" gradientTransform="translate(64.0697 22.4337) scale(48.4306 51.2424)">
<stop stop-color="#54C3FF"/>
<stop offset="1"/>
</radialGradient>
<radialGradient id="paint49_radial_8923_45323" cx="0" cy="0" r="1" gradientUnits="userSpaceOnUse" gradientTransform="translate(62.8083 109.08) scale(27.8308 29.4466)">
<stop stop-color="#54C3FF"/>
<stop offset="1"/>
</radialGradient>
<radialGradient id="paint50_radial_8923_45323" cx="0" cy="0" r="1" gradientUnits="userSpaceOnUse" gradientTransform="translate(66.5078 74.6535) scale(78.4476 83.002)">
<stop stop-color="#54C3FF"/>
<stop offset="1"/>
</radialGradient>
<radialGradient id="paint51_radial_8923_45323" cx="0" cy="0" r="1" gradientUnits="userSpaceOnUse" gradientTransform="translate(63.4812 88.2632) scale(22.1133 23.3972)">
<stop stop-color="#C3D0E3"/>
<stop offset="1" stop-color="#696F7D"/>
</radialGradient>
<radialGradient id="paint52_radial_8923_45323" cx="0" cy="0" r="1" gradientUnits="userSpaceOnUse" gradientTransform="translate(264.014 91.3757) scale(18.2456 19.3049)">
<stop stop-color="#C3D0E3"/>
<stop offset="1" stop-color="#696F7D"/>
</radialGradient>
<radialGradient id="paint53_radial_8923_45323" cx="0" cy="0" r="1" gradientUnits="userSpaceOnUse" gradientTransform="translate(263.846 113.527) scale(24.1312 25.5322)">
<stop stop-color="#54C3FF"/>
<stop offset="1"/>
</radialGradient>
<radialGradient id="paint54_radial_8923_45323" cx="0" cy="0" r="1" gradientUnits="userSpaceOnUse" gradientTransform="translate(222.982 76.701) scale(69.1146 73.1272)">
<stop stop-color="#54C3FF"/>
<stop offset="1"/>
</radialGradient>
<radialGradient id="paint55_radial_8923_45323" cx="0" cy="0" r="1" gradientUnits="userSpaceOnUse" gradientTransform="translate(363.986 87.1961) scale(61.7995 65.3875)">
<stop stop-color="#54C3FF"/>
<stop offset="1"/>
</radialGradient>
<radialGradient id="paint56_radial_8923_45323" cx="0" cy="0" r="1" gradientUnits="userSpaceOnUse" gradientTransform="translate(350.365 76.9667) scale(40.7793 43.1468)">
<stop stop-color="#C3D0E3"/>
<stop offset="1" stop-color="#696F7D"/>
</radialGradient>
<radialGradient id="paint57_radial_8923_45323" cx="0" cy="0" r="1" gradientUnits="userSpaceOnUse" gradientTransform="translate(377.355 40.4892) scale(23.9631 25.3544)">
<stop stop-color="#C3D0E3"/>
<stop offset="1" stop-color="#696F7D"/>
</radialGradient>
<radialGradient id="paint58_radial_8923_45323" cx="0" cy="0" r="1" gradientUnits="userSpaceOnUse" gradientTransform="translate(397.114 50.5461) scale(37.332 39.4994)">
<stop stop-color="#54C3FF"/>
<stop offset="1"/>
</radialGradient>
<linearGradient id="paint59_linear_8923_45323" x1="385.848" y1="2.85807" x2="385.848" y2="2.85807" gradientUnits="userSpaceOnUse">
<stop stop-color="#FFDD99"/>
<stop offset="1" stop-color="#FFDD99"/>
</linearGradient>
<linearGradient id="paint60_linear_8923_45323" x1="153.784" y1="0.900879" x2="156.895" y2="0.900879" gradientUnits="userSpaceOnUse">
<stop stop-color="#9C7135"/>
<stop offset="1" stop-color="#572E18"/>
</linearGradient>
<linearGradient id="paint61_linear_8923_45323" x1="154.12" y1="0.900879" x2="161.519" y2="0.900879" gradientUnits="userSpaceOnUse">
<stop stop-color="#A67D5F"/>
<stop offset="1" stop-color="#F0D0AD"/>
</linearGradient>
<clipPath id="clip0_8923_45323">
<rect width="48" height="48" fill="white" transform="translate(23 34.9009)"/>
</clipPath>
</defs>
</svg>
